<svg xmlns="http://www.w3.org/2000/svg" width="954.823" height="524" viewBox="0 0 954.823 524">
  <defs>
    <style>
      .cls-1 {
        fill: #402a2a;
      }

      .cls-11, .cls-12, .cls-19, .cls-2, .cls-20, .cls-21, .cls-22, .cls-24, .cls-5, .cls-6, .cls-7 {
        fill: none;
      }

      .cls-2, .cls-20, .cls-22, .cls-7 {
        stroke: #fff;
      }

      .cls-2 {
        stroke-dasharray: 4;
      }

      .cls-25, .cls-3 {
        fill: #fff;
      }

      .cls-4 {
        font-size: 30px;
      }

      .cls-13, .cls-4 {
        font-family: Poppins-Medium, Poppins;
        font-weight: 500;
      }

      .cls-19, .cls-21, .cls-5, .cls-6 {
        stroke: #331a1a;
      }

      .cls-5 {
        stroke-width: 5px;
      }

      .cls-6 {
        stroke-width: 4px;
      }

      .cls-7 {
        stroke-width: 3px;
      }

      .cls-27, .cls-8 {
        fill: #331a1a;
      }

      .cls-9 {
        fill: #fccbcb;
      }

      .cls-10 {
        fill: #edb5b5;
      }

      .cls-12 {
        stroke-dasharray: 2 3;
      }

      .cls-13, .cls-16 {
        fill: #be4545;
      }

      .cls-13 {
        font-size: 140px;
      }

      .cls-14, .cls-26 {
        fill: #2e0303;
      }

      .cls-15 {
        fill: #8d1b1b;
      }

      .cls-17 {
        fill: #d86d3e;
      }

      .cls-18 {
        fill: #f5804c;
      }

      .cls-19, .cls-20 {
        stroke-width: 2px;
      }

      .cls-23, .cls-25, .cls-26, .cls-27 {
        stroke: none;
      }
    </style>
  </defs>
  <g id="branding" transform="translate(-596.291 -744)">
    <rect id="Rectangle_3" data-name="Rectangle 3" class="cls-1" width="743" height="524" transform="translate(643 744)"/>
    <g id="Number2" transform="translate(596.291 781)">
      <g id="Ellipse_64" data-name="Ellipse 64" class="cls-2">
        <circle class="cls-23" cx="36.5" cy="36.5" r="36.5"/>
        <circle class="cls-24" cx="36.5" cy="36.5" r="36"/>
      </g>
      <circle id="Ellipse_67" data-name="Ellipse 67" class="cls-3" cx="31" cy="31" r="31" transform="translate(13 6)"/>
      <text id="_1" data-name="1" class="cls-4" transform="translate(39 48)"><tspan x="0" y="0">1</tspan></text>
    </g>
    <g id="Illustration" transform="translate(965.311 774)">
      <g id="Frame" transform="translate(-965.311 -774)">
        <line id="Line_6" data-name="Line 6" class="cls-5" y2="458" transform="translate(1414 777)"/>
        <line id="Line_3" data-name="Line 3" class="cls-5" x2="415" transform="translate(999.5 1233.5)"/>
        <line id="Line_4" data-name="Line 4" class="cls-6" y2="454.5" transform="translate(1002 777)"/>
        <line id="Line_5" data-name="Line 5" class="cls-6" x1="418" y2="2" transform="translate(1000.5 777.5)"/>
        <g id="Box" class="cls-7" transform="translate(997 774)">
          <rect class="cls-23" width="421" height="464"/>
          <rect class="cls-24" x="1.5" y="1.5" width="418" height="461"/>
        </g>
      </g>
      <g id="Pallete" transform="translate(-965.311 -774)">
        <path id="Path_104" data-name="Path 104" class="cls-8" d="M133.813,11.765C222.1-31.123,291.181,16.948,294.544,39.617c3.224,21.728-103.465,49.12-89.579,66.838C225.1,132.15,326.322,133.269,336.5,164.209s-30.823,55.24-30.823,55.24a561.343,561.343,0,0,1-79.455,39.257,378.121,378.121,0,0,1-77.348,21.239C50.562,291.86,37.295,290.482-12.709,273.423s-65.833-33.647-53.436-86.314S45.526,54.654,133.813,11.765Z" transform="translate(1212.989 846.683)"/>
        <path id="Path_92" data-name="Path 92" class="cls-9" d="M130.81,11.512C217.8-30.745,285.861,16.618,289.175,38.954c3.177,21.408-101.942,48.4-88.261,65.854,19.841,25.316,119.57,26.419,129.6,56.9s-30.369,54.426-30.369,54.426a553.076,553.076,0,0,1-78.285,38.679,372.553,372.553,0,0,1-76.209,20.926c-96.867,11.74-109.938,10.382-159.205-6.425S-78.418,236.166-66.2,184.274,43.823,53.769,130.81,11.512Z" transform="translate(1219 851)"/>
        <path id="Path_95" data-name="Path 95" class="cls-10" d="M73.719,12.745C139.2-19.064,199.2,11.165,201.7,27.978,204.087,44.092,81.7,94.659,92,107.8c14.935,19.056,133.263-10.365,140.812,12.581s-52.98,67.015-52.98,67.015S139.577,209.724,92,217.283c-67.2,10.677-104.232-3.461-104.232-3.461s-37.366-9.006-51.3-29.07-8.846-44.207-4.935-56.216C-51.256,75.69,8.241,44.553,73.719,12.745Z" transform="translate(1221 908.226)"/>
        <g id="Path_96" data-name="Path 96" class="cls-11" transform="translate(1219 859.869)">
          <path class="cls-23" d="M124.64,10.992c84.317-40.96,150.291,4.95,153.5,26.6,3.079,20.751-98.812,46.911-85.551,63.832,19.231,24.539,115.9,25.608,125.621,55.156s-29.437,52.755-29.437,52.755a536.1,536.1,0,0,1-75.881,37.491,361.113,361.113,0,0,1-73.87,20.284c-93.893,11.38-106.563,10.064-154.318-6.228s-62.872-32.133-51.033-82.432S40.323,51.951,124.64,10.992Z"/>
          <path class="cls-25" d="M 192.134033203125 -3.43658447265625 C 181.6872863769531 -3.43658447265625 171.0084533691406 -2.185211181640625 160.3940887451172 0.2828369140625 C 148.7711486816406 2.985366821289062 137.0358276367188 7.193634033203125 125.5139770507812 12.79067993164062 C 83.46308898925781 33.21826171875 38.90887451171875 62.35888671875 3.2755126953125 92.74058532714844 C -5.712600708007812 100.404052734375 -14.05360412597656 108.0859527587891 -21.51576232910156 115.5729522705078 C -29.18995666503906 123.2727355957031 -36.01033020019531 130.8428955078125 -41.78733825683594 138.0731506347656 C -47.75355529785156 145.5403137207031 -52.68092346191406 152.7382659912109 -56.43254089355469 159.4671020507812 C -60.30296325683594 166.4090576171875 -62.97654724121094 172.949951171875 -64.37895202636719 178.9081115722656 C -67.33744812011719 191.4773101806641 -68.54322814941406 201.6952056884766 -68.06517028808594 210.1457366943359 C -67.59144592285156 218.5202026367188 -65.44322204589844 225.4404144287109 -61.49781799316406 231.3017883300781 C -59.54301452636719 234.2058410644531 -57.16822814941406 236.8520050048828 -54.23774719238281 239.3914794921875 C -51.36964416503906 241.8767852783203 -48.04780578613281 244.1914672851562 -44.08238220214844 246.4676361083984 C -36.81770324707031 250.6376342773438 -27.46443176269531 254.6163635253906 -14.64701843261719 258.9890441894531 C 12.40582275390625 268.2182006835938 27.94882202148438 272.5662536621094 53.51161193847656 272.5662536621094 C 73.470947265625 272.5662536621094 99.87971496582031 269.8393859863281 138.7477569580078 265.1289367675781 C 162.8644409179688 261.2942810058594 188.2500915527344 254.3217926025391 212.1655578613281 244.9639434814453 C 221.4861907958984 241.31689453125 231.2564086914062 237.0861053466797 241.2048797607422 232.38916015625 C 249.1695098876953 228.6288452148438 257.2650756835938 224.5631561279297 265.2667236328125 220.3051605224609 C 278.8976745605469 213.0515289306641 287.6409912109375 207.6849517822266 287.7276611328125 207.6315765380859 L 287.7418823242188 207.6228332519531 L 287.7561340332031 207.6144256591797 C 287.8514404296875 207.5579528808594 297.3801879882812 201.8614807128906 305.6553344726562 192.6975708007812 C 310.4601440429688 187.3767395019531 313.8849792480469 181.9622192382812 315.8348693847656 176.6044311523438 C 316.974609375 173.4726257324219 317.61572265625 170.3249969482422 317.7404174804688 167.2490539550781 C 317.8770446777344 163.8788452148438 317.3966674804688 160.4993591308594 316.3126831054688 157.2045745849609 C 315.7492065429688 155.4917907714844 314.8180847167969 153.8146820068359 313.5452270507812 152.2198486328125 C 312.2951965332031 150.6535339355469 310.6742553710938 149.1135864257812 308.7274169921875 147.6427307128906 C 305.0347595214844 144.8530578613281 300.1628723144531 142.2598876953125 293.8331909179688 139.7151489257812 C 281.9049682617188 134.9196319580078 266.6277160644531 131.0957946777344 251.8535003662109 127.3977890014648 C 239.2499847412109 124.2431564331055 226.2174072265625 120.9811553955078 215.4993438720703 117.1536254882812 C 209.6735076904297 115.0731506347656 204.9531860351562 112.9884185791016 201.0686645507812 110.7803649902344 C 196.5973510742188 108.2387390136719 193.3096618652344 105.5815277099609 191.0176086425781 102.6569519042969 C 189.5852355957031 100.8292694091797 189.0924072265625 98.73078918457031 189.5923004150391 96.58847045898438 C 190.1251831054688 94.30516052246094 191.7508239746094 91.97816467285156 194.5621948242188 89.47457885742188 C 196.885498046875 87.40562438964844 200.0272521972656 85.20263671875 204.1668701171875 82.73973083496094 C 211.7426147460938 78.23252868652344 221.3400268554688 73.62542724609375 231.5009765625 68.74778747558594 C 242.9599761962891 63.24705505371094 254.8090362548828 57.55905151367188 263.4441833496094 52.05657958984375 C 268.0003356933594 49.1533203125 271.2567749023438 46.57400512695312 273.3995971679688 44.1712646484375 C 275.5030822753906 41.81253051757812 276.4332885742188 39.69741821289062 276.164306640625 37.88468933105469 C 275.6494445800781 34.41452026367188 273.1939697265625 30.09263610839844 269.2501831054688 25.71505737304688 C 264.8817138671875 20.86614990234375 258.8896179199219 16.13400268554688 251.9217224121094 12.03021240234375 C 244.0181884765625 7.37542724609375 235.1972503662109 3.68115234375 225.7039337158203 1.049942016601562 C 214.9627227783203 -1.927108764648438 203.6681365966797 -3.43658447265625 192.134033203125 -3.43658447265625 M 192.134033203125 -5.436553955078125 C 241.8792419433594 -5.436553955078125 275.8596496582031 22.20347595214844 278.1426696777344 37.59115600585938 C 281.2216796875 58.34231567382812 179.3303985595703 84.50178527832031 192.5917663574219 101.4232635498047 C 211.8231964111328 125.962158203125 308.4910888671875 127.0309982299805 318.2125244140625 156.5795288085938 C 327.9339904785156 186.1281127929688 288.7758178710938 209.3349456787109 288.7758178710938 209.3349456787109 C 288.7758178710938 209.3349456787109 253.9709320068359 230.7536773681641 212.8943481445312 246.826416015625 C 187.8167114257812 256.6390075683594 162.3667144775391 263.4013061523438 139.0248260498047 267.1099853515625 C 98.51985168457031 272.0191650390625 73.12274169921875 274.5662841796875 53.51164245605469 274.5662841796875 C 27.66316223144531 274.5662841796875 11.8607177734375 270.1454162597656 -15.29277038574219 260.8819580078125 C -63.04743957519531 244.5903625488281 -78.16490173339844 228.7486267089844 -66.32575988769531 178.4498901367188 C -54.48664855957031 128.1511535644531 40.32292175292969 51.95147705078125 124.6400833129883 10.99172973632812 C 149.0284423828125 -0.855682373046875 171.8899230957031 -5.436553955078125 192.134033203125 -5.436553955078125 Z"/>
        </g>
        <g id="Path_97" data-name="Path 97" class="cls-11" transform="translate(1219 866.115)">
          <path class="cls-23" d="M120.294,10.625c82.436-40.046,146.938,4.839,150.078,26.006,3.01,20.288-96.608,45.864-83.642,62.408,18.8,23.991,113.314,25.036,122.818,53.926s-28.78,51.579-28.78,51.579A524.138,524.138,0,0,1,206.58,241.2a353.058,353.058,0,0,1-72.222,19.831c-91.8,11.126-104.186,9.839-150.875-6.089s-61.47-31.417-49.895-80.593S37.858,50.671,120.294,10.625Z"/>
          <path class="cls-25" d="M 186.2826538085938 -3.43658447265625 C 176.0723571777344 -3.43658447265625 165.6351013183594 -2.213485717773438 155.2608642578125 0.1987152099609375 C 143.9004058837891 2.8402099609375 132.4300079345703 6.953460693359375 121.1682052612305 12.42420959472656 C 80.05865478515625 32.39451599121094 36.50180053710938 60.8828125 1.666107177734375 90.58441162109375 C -7.120590209960938 98.07615661621094 -15.274658203125 105.5858612060547 -22.5694580078125 112.9049682617188 C -30.07135009765625 120.4318084716797 -36.73843383789062 127.8319091796875 -42.38558959960938 134.8996124267578 C -48.21719360351562 142.1982727050781 -53.03323364257812 149.2335510253906 -56.69998168945312 155.8101501464844 C -60.48208618164062 162.5936584472656 -63.094482421875 168.9847717285156 -64.46469116210938 174.8060150146484 C -67.356201171875 187.0905609130859 -68.53469848632812 197.0763549804688 -68.06753540039062 205.3339538574219 C -67.6048583984375 213.5134124755859 -65.50698852539062 220.2719573974609 -61.65420532226562 225.9957122802734 C -59.7452392578125 228.8317108154297 -57.42593383789062 231.4159545898438 -54.56390380859375 233.8961181640625 C -51.76199340820312 236.3241119384766 -48.51654052734375 238.5855102539062 -44.64208984375 240.8094635009766 C -37.5419921875 244.8849639892578 -28.39984130859375 248.7738647460938 -15.87115478515625 253.0480651855469 C 10.57330322265625 262.0696716308594 25.76651000976562 266.3199462890625 50.75245666503906 266.3199462890625 C 70.26434326171875 266.3199462890625 96.08151245117188 263.6541748046875 134.080810546875 259.0490112304688 C 157.6564178466797 255.3003387451172 182.4720306396484 248.4843902587891 205.8511047363281 239.3364562988281 C 214.9626617431641 235.7712097167969 224.5138549804688 231.6353149414062 234.2393035888672 227.0436096191406 C 242.0255126953125 223.3675537109375 249.9397583007812 219.3929595947266 257.76220703125 215.2303161621094 C 271.0880126953125 208.1390686035156 279.6356506347656 202.8926086425781 279.7203979492188 202.8404541015625 L 279.734619140625 202.8317565917969 L 279.7481689453125 202.8237152099609 C 279.7716979980469 202.8097076416016 282.1394653320312 201.397705078125 285.4790649414062 198.8894653320312 C 291.0357055664062 194.7160034179688 294.9743041992188 190.7617645263672 297.2998962402344 188.1794586181641 C 301.9746704101562 182.9888153076172 305.3048706054688 177.7080688476562 307.1981201171875 172.4839630126953 C 308.3037109375 169.4332122802734 308.924560546875 166.3672180175781 309.0433959960938 163.3711547851562 C 309.1735534667969 160.0895690917969 308.7043151855469 156.7988128662109 307.6487426757812 153.5903625488281 C 307.0994567871094 151.9208679199219 306.191650390625 150.2858123779297 304.9505004882812 148.730712890625 C 303.730712890625 147.2022705078125 302.1485595703125 145.6992645263672 300.2481079101562 144.2635192871094 C 296.64111328125 141.5384216308594 291.8811950683594 139.0050048828125 285.6964721679688 136.5185546875 C 274.0371704101562 131.8311157226562 259.1022033691406 128.0929565429688 244.6590118408203 124.4778594970703 C 232.3356018066406 121.393310546875 219.5927124023438 118.2038116455078 209.1117095947266 114.4609069824219 C 203.4133605957031 112.4260101318359 198.7960052490234 110.38671875 194.995849609375 108.2266082763672 C 190.6191558837891 105.7387542724609 187.4005126953125 103.1371612548828 185.1559143066406 100.2731628417969 C 183.7469024658203 98.47520446777344 183.2621612548828 96.41056823730469 183.7541046142578 94.30241394042969 C 184.2772521972656 92.06071472167969 185.8711547851562 89.77806091308594 188.6269073486328 87.32400512695312 C 190.9005584716797 85.29925537109375 193.9744567871094 83.14376831054688 198.0242004394531 80.73435974121094 C 205.4327087402344 76.32670593261719 214.8169097900391 71.82191467285156 224.7521057128906 67.05265808105469 C 235.9542541503906 61.67521667480469 247.5378112792969 56.11465454101562 255.9780578613281 50.73635864257812 C 260.4290466308594 47.90011596679688 263.6098022460938 45.38096618652344 265.7020568847656 43.034912109375 C 267.7493896484375 40.73916625976562 268.6552124023438 38.68345642089844 268.3942565917969 36.9248046875 C 267.8921508789062 33.54071044921875 265.495361328125 29.32345581054688 261.6453552246094 25.05001831054688 C 257.3773193359375 20.31256103515625 251.5225524902344 15.68896484375 244.7139587402344 11.67901611328125 C 236.9901123046875 7.13006591796875 228.3695526123047 3.519668579101562 219.0917510986328 0.9482574462890625 C 208.5940093994141 -1.961334228515625 197.5554504394531 -3.43658447265625 186.2826538085938 -3.43658447265625 M 186.2826385498047 -5.436569213867188 C 234.9181518554688 -5.436569213867188 268.1405029296875 21.58688354492188 270.3726196289062 36.63131713867188 C 273.3829040527344 56.91950988769531 173.7646026611328 82.49546813964844 186.7301025390625 99.03945922851562 C 205.5325622558594 123.0309600830078 300.0440063476562 124.0759124755859 309.5485534667969 152.9653015136719 C 319.05322265625 181.8546600341797 280.7685546875 204.5438079833984 280.7685546875 204.5438079833984 C 280.7685546875 204.5438079833984 246.7400512695312 225.4847564697266 206.5798645019531 241.1989593505859 C 182.0616607666016 250.7926177978516 157.1793518066406 257.404052734375 134.3582153320312 261.0299987792969 C 94.75680541992188 265.8296508789062 69.92608642578125 268.3199768066406 50.75247192382812 268.3199768066406 C 25.48062133789062 268.3199768066406 10.03083801269531 263.997802734375 -16.51690673828125 254.9409637451172 C -63.20623779296875 239.0127563476562 -77.98648071289062 223.5244140625 -66.4114990234375 174.3477630615234 C -54.83645629882812 125.1711120605469 37.85810852050781 50.6712646484375 120.294303894043 10.62525939941406 C 144.1386108398438 -0.9578857421875 166.4901428222656 -5.436569213867188 186.2826385498047 -5.436569213867188 Z"/>
        </g>
      </g>
      <g id="Text" transform="translate(-1400.318 -1843.921)">
        <g id="Path_107" data-name="Path 107" class="cls-12" transform="translate(1738.007 1979.921)">
          <path class="cls-23" d="M-.541.845,136.611-.664l1.109,182.114-139.189-.043Z"/>
          <path class="cls-26" d="M 136.6106719970703 -0.6638336181640625 C 136.6106719970703 -0.6638336181640625 136.6228332519531 1.336151123046875 136.6228332519531 1.336151123046875 L 134.6228942871094 1.34832763671875 L 134.6107482910156 -0.6418304443359375 L 136.6106719970703 -0.6638336181640625 Z M 136.64111328125 4.336074829101562 C 136.64111328125 4.336074829101562 136.6457061767578 5.0875244140625 136.6492462158203 5.669189453125 L 136.6492614746094 5.670455932617188 C 136.6492614746094 5.67242431640625 136.6492767333984 5.674392700195312 136.6492919921875 5.676361083984375 L 136.6533050537109 6.336044311523438 L 134.6533355712891 6.348220825195312 L 134.6411590576172 4.3482666015625 L 136.64111328125 4.336074829101562 Z M 136.6715850830078 9.33599853515625 L 136.6768035888672 10.19111633300781 C 136.6768035888672 10.19203186035156 136.6768035888672 10.19291687011719 136.6768188476562 10.19383239746094 L 136.6768493652344 10.19937133789062 C 136.6768646240234 10.20196533203125 136.6768798828125 10.20458984375 136.6768951416016 10.20719909667969 L 136.6768951416016 10.20761108398438 C 136.6769104003906 10.20936584472656 136.6769256591797 10.21112060546875 136.6769256591797 10.21287536621094 L 136.6769256591797 10.21351623535156 C 136.6769866943359 10.22291564941406 136.6770477294922 10.23243713378906 136.6771087646484 10.24185180664062 L 136.6771087646484 10.24258422851562 C 136.6803283691406 10.77168273925781 136.6837615966797 11.33595275878906 136.6837615966797 11.33595275878906 L 134.6838226318359 11.34811401367188 L 134.6716156005859 9.348175048828125 L 136.6715850830078 9.33599853515625 Z M 136.7020416259766 14.33589172363281 C 136.7020416259766 14.33589172363281 136.7043151855469 14.7080078125 136.7068939208984 15.13127136230469 L 136.7142333984375 16.33584594726562 L 134.7142639160156 16.34805297851562 L 134.7020874023438 14.34806823730469 L 136.7020416259766 14.33589172363281 Z M 136.7325134277344 19.33580017089844 L 136.7433319091797 21.11201477050781 C 136.7433319091797 21.11209106445312 136.7433319091797 21.11221313476562 136.7433319091797 21.1123046875 L 136.7433471679688 21.1148681640625 C 136.7433624267578 21.11676025390625 136.7433624267578 21.1185302734375 136.7433776855469 21.12039184570312 L 136.7433929443359 21.12347412109375 C 136.7434234619141 21.12788391113281 136.7434539794922 21.13233947753906 136.7434844970703 21.13662719726562 L 136.7434844970703 21.13687133789062 C 136.7435150146484 21.14146423339844 136.7435302734375 21.14602661132812 136.7435607910156 21.15049743652344 L 136.7435760498047 21.1519775390625 C 136.7442626953125 21.26577758789062 136.7446899414062 21.33576965332031 136.7446899414062 21.33576965332031 L 134.7447357177734 21.34794616699219 L 134.7325439453125 19.34799194335938 L 136.7325134277344 19.33580017089844 Z M 136.7629699707031 24.335693359375 C 136.7629699707031 24.335693359375 136.775146484375 26.33567810058594 136.775146484375 26.33567810058594 L 134.7751922607422 26.34783935546875 L 134.7630157470703 24.347900390625 L 136.7629699707031 24.335693359375 Z M 136.7934112548828 29.33561706542969 C 136.7934112548828 29.33561706542969 136.7994384765625 30.32231140136719 136.8030242919922 30.90959167480469 L 136.8030395507812 30.91311645507812 C 136.8030395507812 30.91413879394531 136.8030548095703 30.91508483886719 136.8030548095703 30.91609191894531 L 136.8031311035156 30.92733764648438 C 136.8031311035156 30.92779541015625 136.8031311035156 30.92826843261719 136.8031311035156 30.92872619628906 L 136.8056182861328 31.3355712890625 L 134.8056335449219 31.3477783203125 L 134.7934722900391 29.34779357910156 L 136.7934112548828 29.33561706542969 Z M 136.8238830566406 34.33552551269531 L 136.8265991210938 34.78143310546875 C 136.8266143798828 34.78199768066406 136.8266143798828 34.78254699707031 136.8266143798828 34.78311157226562 L 136.8266906738281 34.79600524902344 C 136.8266906738281 34.79637145996094 136.8267059326172 34.79676818847656 136.8267059326172 34.79713439941406 L 136.8267517089844 34.80470275878906 C 136.8303527832031 35.39585876464844 136.8360595703125 36.33549499511719 136.8360595703125 36.33549499511719 L 134.8361206054688 36.34767150878906 L 134.8239135742188 34.34770202636719 L 136.8238983154297 34.33552551269531 Z M 136.8543395996094 39.33541870117188 C 136.8543395996094 39.33541870117188 136.8574676513672 39.84837341308594 136.8605651855469 40.35469055175781 L 136.8665313720703 41.33540344238281 L 134.8665618896484 41.34756469726562 L 134.8543853759766 39.34762573242188 L 136.8543395996094 39.33541870117188 Z M 136.8848114013672 44.33534240722656 L 136.8932189941406 45.7154541015625 C 136.8932342529297 45.71768188476562 136.8932495117188 45.71987915039062 136.8932647705078 45.72210693359375 L 136.8932800292969 45.72572326660156 C 136.8933258056641 45.73246765136719 136.8933563232422 45.73915100097656 136.8934020996094 45.74583435058594 L 136.8934020996094 45.74623107910156 C 136.8954162597656 46.07708740234375 136.8969879150391 46.33529663085938 136.8969879150391 46.33529663085938 L 134.8970336914062 46.34747314453125 L 134.8848419189453 44.34751892089844 L 136.8848114013672 44.33534240722656 Z M 136.9152679443359 49.33525085449219 C 136.9152679443359 49.33525085449219 136.9165649414062 49.54893493652344 136.9183197021484 49.83665466308594 L 136.9183502197266 49.84194946289062 C 136.9183654785156 49.84259033203125 136.9183654785156 49.8433837890625 136.9183654785156 49.84402465820312 L 136.91845703125 49.85781860351562 C 136.91845703125 49.85798645019531 136.91845703125 49.8580322265625 136.91845703125 49.85820007324219 L 136.9274597167969 51.33518981933594 L 134.927490234375 51.34739685058594 L 134.9153137207031 49.34742736816406 L 136.9152679443359 49.33525085449219 Z M 136.9457244873047 54.33514404296875 L 136.9579162597656 56.33512115478516 L 134.9579467773438 56.34729766845703 L 134.9457702636719 54.34734344482422 L 136.9457397460938 54.33514404296875 Z M 136.9761962890625 59.33504486083984 L 136.9764251708984 59.37381744384766 C 136.9764251708984 59.3740234375 136.9764251708984 59.37425994873047 136.9764251708984 59.37446594238281 L 136.9765167236328 59.38896179199219 C 136.9765319824219 59.38995361328125 136.9765319824219 59.39093780517578 136.9765319824219 59.39195251464844 L 136.9765472412109 59.39321136474609 C 136.9765472412109 59.39442443847656 136.9765625 59.39562225341797 136.9765625 59.39686584472656 L 136.9765625 59.39737701416016 C 136.9765777587891 59.39852905273438 136.9765777587891 59.39967346191406 136.9765930175781 59.40085601806641 L 136.9766082763672 59.40418243408203 C 136.9766082763672 59.40469360351562 136.9766235351562 59.40517425537109 136.9766235351562 59.40568542480469 L 136.9766235351562 59.406494140625 C 136.9766387939453 59.40779876708984 136.9766387939453 59.4091796875 136.9766540527344 59.41050720214844 L 136.9766540527344 59.41136169433594 C 136.9766693115234 59.41252136230469 136.9766693115234 59.41374206542969 136.9766845703125 59.41493225097656 L 136.9767456054688 59.42688751220703 C 136.9767608642578 59.42790985107422 136.9767608642578 59.42894744873047 136.9767761230469 59.42997741699219 L 136.9767761230469 59.43196105957031 C 136.9792175292969 59.83209991455078 136.9883728027344 61.33502197265625 136.9883728027344 61.33502197265625 L 134.9884185791016 61.34719848632812 L 134.9762115478516 59.34724426269531 L 136.9761962890625 59.33504486083984 Z M 137.0066375732422 64.33496856689453 C 137.0066375732422 64.33496856689453 137.0109252929688 65.03748321533203 137.0144195556641 65.60976409912109 L 137.0144500732422 65.61495208740234 C 137.0144500732422 65.61582946777344 137.0144653320312 65.61685943603516 137.0144653320312 65.61773681640625 L 137.0145263671875 65.62644958496094 C 137.0145263671875 65.62686157226562 137.0145263671875 65.62725067138672 137.0145263671875 65.62766265869141 L 137.0188293457031 66.33492279052734 L 135.0188598632812 66.34712219238281 L 135.0066833496094 64.34714508056641 L 137.0066375732422 64.33496856689453 Z M 137.037109375 69.33486938476562 L 137.0430755615234 70.31414794921875 C 137.0430755615234 70.31494140625 137.0430908203125 70.31566619873047 137.0430908203125 70.31645965576172 L 137.043212890625 70.33650970458984 C 137.0462493896484 70.83595275878906 137.0492858886719 71.33484649658203 137.0492858886719 71.33484649658203 L 135.0493469238281 71.34702301025391 L 135.0371398925781 69.3470458984375 L 137.037109375 69.33486938476562 Z M 137.0675659179688 74.33477020263672 C 137.0675659179688 74.33477020263672 137.069580078125 74.66392517089844 137.0719604492188 75.05510711669922 L 137.0721588134766 75.08766937255859 C 137.0721588134766 75.08784484863281 137.0721588134766 75.08795928955078 137.0721588134766 75.088134765625 L 137.0797576904297 76.33474731445312 L 135.0797882080078 76.346923828125 L 135.0676116943359 74.34696960449219 L 137.0675659179688 74.33477020263672 Z M 137.0980377197266 79.33469390869141 L 137.1094512939453 81.20801544189453 C 137.1094512939453 81.20801544189453 137.1094512939453 81.20803833007812 137.1094512939453 81.20803833007812 L 137.1094970703125 81.21671295166016 C 137.1094970703125 81.21695709228516 137.1094970703125 81.21723937988281 137.1094970703125 81.21748352050781 L 137.1095123291016 81.21963500976562 C 137.1095123291016 81.21981811523438 137.1095123291016 81.22000885009766 137.1095123291016 81.22019195556641 L 137.1096038818359 81.23366546630859 C 137.1096038818359 81.2340087890625 137.1096038818359 81.23434448242188 137.1096038818359 81.23468780517578 L 137.109619140625 81.23665618896484 C 137.109619140625 81.23674011230469 137.109619140625 81.23685455322266 137.109619140625 81.2369384765625 L 137.1096343994141 81.23917388916016 C 137.1096343994141 81.23967742919922 137.1096343994141 81.24018859863281 137.1096496582031 81.24069213867188 L 137.1096496582031 81.24098205566406 C 137.1096496582031 81.24162292480469 137.1096496582031 81.24221038818359 137.1096496582031 81.24284362792969 L 137.1097259521484 81.25474548339844 C 137.1097259521484 81.25495147705078 137.1097259521484 81.25521087646484 137.1097259521484 81.25541687011719 L 137.1097412109375 81.25682067871094 C 137.1097412109375 81.2572021484375 137.1097412109375 81.25753784179688 137.1097412109375 81.25791931152344 L 137.1097564697266 81.25936889648438 C 137.1097717285156 81.26070404052734 137.1097717285156 81.26199340820312 137.1097869873047 81.26329040527344 L 137.1097869873047 81.26366424560547 C 137.1097869873047 81.26490783691406 137.1098022460938 81.26620483398438 137.1098022460938 81.26742553710938 L 137.1098175048828 81.26863861083984 C 137.1100769042969 81.31094360351562 137.1102142333984 81.33464813232422 137.1102142333984 81.33464813232422 L 135.1102447509766 81.34682464599609 L 135.0980682373047 79.34687042236328 L 137.0980377197266 79.33469390869141 Z M 137.1284942626953 84.3345947265625 C 137.1284942626953 84.3345947265625 137.1406707763672 86.33454895019531 137.1406707763672 86.33454895019531 L 135.1407165527344 86.34674835205078 L 135.1285400390625 84.34677124023438 L 137.1284942626953 84.3345947265625 Z M 137.158935546875 89.33449554443359 C 137.158935546875 89.33449554443359 137.1645660400391 90.25732421875 137.1681823730469 90.84927368164062 L 137.171142578125 91.33447265625 L 135.1711730957031 91.34664916992188 L 135.1589965820312 89.34669494628906 L 137.158935546875 89.33449554443359 Z M 137.1894073486328 94.33439636230469 L 137.1930389404297 94.92929840087891 C 137.1930694580078 94.93437194824219 137.1930999755859 94.93950653076172 137.1931304931641 94.94461059570312 L 137.1931304931641 94.94577026367188 C 137.1931762695312 94.95234680175781 137.1932220458984 94.95902252197266 137.1932525634766 94.96566009521484 L 137.1932830810547 94.96994018554688 C 137.1968536376953 95.55555725097656 137.2015838623047 96.33437347412109 137.2015838623047 96.33437347412109 L 135.2016448974609 96.34654998779297 L 135.1894378662109 94.34659576416016 L 137.1894226074219 94.33439636230469 Z M 137.2198638916016 99.33432006835938 C 137.2198638916016 99.33432006835938 137.2227325439453 99.80477905273438 137.2256927490234 100.2893142700195 L 137.2320556640625 101.3342742919922 L 135.2320861816406 101.3464736938477 L 135.2199096679688 99.34649658203125 L 137.2198638916016 99.33432006835938 Z M 137.2503356933594 104.3342208862305 L 137.2592620849609 105.8008117675781 C 137.2592620849609 105.8008117675781 137.2592620849609 105.8009414672852 137.2592620849609 105.8009414672852 L 137.2592926025391 105.8058547973633 C 137.2593078613281 105.806022644043 137.2593078613281 105.80615234375 137.2593078613281 105.8063125610352 L 137.2593536376953 105.8137893676758 C 137.2593536376953 105.8149871826172 137.2593688964844 105.816162109375 137.2593688964844 105.8173522949219 L 137.2594604492188 105.8315200805664 C 137.2594909667969 105.837646484375 137.2595367431641 105.8436813354492 137.2595672607422 105.849739074707 L 137.2595672607422 105.8503265380859 C 137.2596130371094 105.8569107055664 137.2596435546875 105.8634719848633 137.2596893310547 105.8699798583984 L 137.2596893310547 105.8710327148438 C 137.2613220214844 106.1392593383789 137.2625122070312 106.3341979980469 137.2625122070312 106.3341979980469 L 135.2625732421875 106.3463745117188 L 135.2503662109375 104.3463973999023 L 137.2503356933594 104.3342208862305 Z M 137.2807922363281 109.3341217041016 C 137.2807922363281 109.3341217041016 137.29296875 111.334098815918 137.29296875 111.334098815918 L 135.2930145263672 111.3462753295898 L 135.2808380126953 109.346321105957 L 137.2807922363281 109.3341217041016 Z M 137.3112487792969 114.3340454101562 L 137.3234405517578 116.3339996337891 L 135.3234710693359 116.3461990356445 L 135.3112945556641 114.3462219238281 L 137.3112640380859 114.3340454101562 Z M 137.3417205810547 119.3339462280273 L 137.3426818847656 119.4924163818359 C 137.3426818847656 119.4926986694336 137.3426818847656 119.4929656982422 137.3426818847656 119.4932479858398 L 137.3426971435547 119.4953384399414 C 137.3426971435547 119.4956512451172 137.3426971435547 119.4960021972656 137.3426971435547 119.4963226318359 L 137.3427124023438 119.4979705810547 C 137.3427429199219 119.5023193359375 137.3427734375 119.5066986083984 137.3427886962891 119.5111999511719 L 137.3428039550781 119.5119094848633 C 137.3428039550781 119.5127868652344 137.3428039550781 119.513671875 137.3428192138672 119.5145568847656 L 137.3428649902344 119.5215682983398 C 137.3458862304688 120.0189971923828 137.3538970947266 121.3338928222656 137.3538970947266 121.3338928222656 L 135.3539428710938 121.3460998535156 L 135.3417358398438 119.3461227416992 L 137.3417205810547 119.3339462280273 Z M 137.3721618652344 124.3338470458984 C 137.3721618652344 124.3338470458984 137.3760223388672 124.966438293457 137.37939453125 125.5200500488281 L 137.3794097900391 125.5208435058594 C 137.3794403076172 125.5270919799805 137.3794860839844 125.5332946777344 137.3795166015625 125.5395202636719 L 137.3795471191406 125.5447998046875 C 137.3795623779297 125.5467071533203 137.3795776367188 125.5485992431641 137.3795928955078 125.5505142211914 L 137.3796234130859 125.5570068359375 C 137.3796234130859 125.5575408935547 137.379638671875 125.5580139160156 137.379638671875 125.5585556030273 L 137.3843536376953 126.3338165283203 L 135.3843841552734 126.3459930419922 L 135.3722229003906 124.3460464477539 L 137.3721618652344 124.3338470458984 Z M 137.4026336669922 129.3337707519531 L 137.4092407226562 130.4176788330078 C 137.4092407226562 130.4187774658203 137.4092559814453 130.4199676513672 137.4092559814453 130.4210510253906 L 137.4093170166016 130.4301910400391 C 137.4093170166016 130.4303131103516 137.4093170166016 130.4303741455078 137.4093170166016 130.4304962158203 L 137.4093475341797 130.4346466064453 C 137.4093475341797 130.4359741210938 137.4093627929688 130.4373474121094 137.4093627929688 130.4386901855469 L 137.4093780517578 130.4392547607422 C 137.4093933105469 130.4430236816406 137.4094085693359 130.4466705322266 137.4094390869141 130.450439453125 L 137.4094390869141 130.4509124755859 C 137.4122314453125 130.9089508056641 137.4148101806641 131.3337249755859 137.4148101806641 131.3337249755859 L 135.4148712158203 131.3459014892578 L 135.4026641845703 129.345947265625 L 137.4026336669922 129.3337707519531 Z M 137.4330902099609 134.3336791992188 C 137.4330902099609 134.3336791992188 137.4349212646484 134.6342926025391 137.4371643066406 135.0024108886719 L 137.4452819824219 136.3336181640625 L 135.4453125 136.3458251953125 L 135.4331359863281 134.3458557128906 L 137.4330902099609 134.3336791992188 Z M 137.4635620117188 139.3335723876953 L 137.4755554199219 141.3029174804688 C 137.4755554199219 141.3029174804688 137.4755554199219 141.3029479980469 137.4755554199219 141.3029479980469 L 137.4755706787109 141.3044586181641 C 137.4755706787109 141.3044738769531 137.4755706787109 141.3045043945312 137.4755706787109 141.3045196533203 L 137.4757385253906 141.3328552246094 C 137.4757385253906 141.3328552246094 137.4757385253906 141.3328552246094 137.4757385253906 141.3328552246094 L 137.4757385253906 141.3330688476562 C 137.4757385253906 141.3330688476562 137.4757385253906 141.3330841064453 137.4757385253906 141.3330993652344 L 137.4757385253906 141.3335418701172 L 135.4757690429688 141.3457183837891 L 135.4635925292969 139.3457489013672 L 137.4635620117188 139.3335723876953 Z M 137.4940185546875 144.3334655761719 C 137.4940185546875 144.3334655761719 137.5061950683594 146.3334503173828 137.5061950683594 146.3334503173828 L 135.5062408447266 146.3456268310547 L 135.4940643310547 144.3456726074219 L 137.4940185546875 144.3334655761719 Z M 137.5244598388672 149.3334045410156 C 137.5244598388672 149.3334045410156 137.5297088623047 150.1928863525391 137.5333251953125 150.7849731445312 L 137.5366668701172 151.3333435058594 L 135.5366973876953 151.3455505371094 L 135.5245208740234 149.3455657958984 L 137.5244598388672 149.3334045410156 Z M 137.554931640625 154.3332977294922 L 137.5591278076172 155.0198822021484 C 137.5626373291016 155.5986633300781 137.5671234130859 156.333251953125 137.5671234130859 156.333251953125 L 135.5671691894531 156.3454437255859 L 135.5549621582031 154.3454742431641 L 137.5549468994141 154.3332977294922 Z M 137.5853881835938 159.3331909179688 C 137.5853881835938 159.3331909179688 137.5880279541016 159.764892578125 137.5908508300781 160.2271575927734 L 137.5908508300781 160.2283325195312 C 137.5908660888672 160.2306518554688 137.5908813476562 160.2329254150391 137.5908966064453 160.2352294921875 L 137.5909271240234 160.2416076660156 C 137.5909423828125 160.2425842285156 137.5909423828125 160.2434997558594 137.5909423828125 160.2444763183594 L 137.5975799560547 161.3331756591797 L 135.5976104736328 161.3453521728516 L 135.5854339599609 159.3453979492188 L 137.5853881835938 159.3331909179688 Z M 137.6158599853516 164.3331298828125 L 137.6255035400391 165.9157257080078 C 137.6255035400391 165.9161376953125 137.6255035400391 165.9165344238281 137.6255035400391 165.9169464111328 L 137.6255340576172 165.9206085205078 C 137.6255493164062 165.9228210449219 137.6255645751953 165.9251251220703 137.6255645751953 165.9273376464844 L 137.6255798339844 165.9298706054688 C 137.6255950927734 165.9312286376953 137.6256103515625 165.9326171875 137.6256103515625 165.9339752197266 L 137.6256408691406 165.9394378662109 C 137.6256408691406 165.9401397705078 137.6256561279297 165.9407806396484 137.6256561279297 165.9414825439453 L 137.6256713867188 165.9441375732422 C 137.6256713867188 165.9446411132812 137.6256866455078 165.9451751708984 137.6256866455078 165.9456634521484 L 137.6257629394531 165.9578552246094 C 137.6257781982422 165.9604339599609 137.6257934570312 165.9630279541016 137.6258087158203 165.9656066894531 L 137.6258087158203 165.9672088623047 C 137.6258239746094 165.9699249267578 137.6258544921875 165.9727020263672 137.6258697509766 165.9754028320312 L 137.6258697509766 165.9756622314453 C 137.6258850097656 165.9786834716797 137.6259002685547 165.9816741943359 137.6259155273438 165.9846801757812 L 137.6259155273438 165.9847412109375 C 137.6271820068359 166.1919860839844 137.6280364990234 166.3330688476562 137.6280364990234 166.3330688476562 L 135.6280975341797 166.3452453613281 L 135.6158905029297 164.3452911376953 L 137.6158599853516 164.3331298828125 Z M 137.6463165283203 169.3330230712891 C 137.6463165283203 169.3330230712891 137.6584930419922 171.3329772949219 137.6584930419922 171.3329772949219 L 135.6585388183594 171.3451690673828 L 135.6463623046875 169.3451995849609 L 137.6463165283203 169.3330230712891 Z M 137.6767730712891 174.3329162597656 L 137.68896484375 176.3329010009766 L 135.6889953613281 176.3450775146484 L 135.6768188476562 174.3450927734375 L 137.6767883300781 174.3329162597656 Z M 137.7072448730469 179.3328247070312 L 137.708984375 179.6198425292969 C 137.7089996337891 179.6210479736328 137.7089996337891 179.6222381591797 137.7090148925781 179.6234436035156 L 137.7090148925781 179.6238708496094 C 137.7090148925781 179.6248931884766 137.7090301513672 179.6259155273438 137.7090301513672 179.626953125 L 137.7091522216797 179.6466979980469 C 137.7125854492188 180.2096557617188 137.7194213867188 181.3327941894531 137.7194213867188 181.3327941894531 L 135.7194671630859 181.344970703125 L 135.7072601318359 179.3450164794922 L 137.7072448730469 179.3328247070312 Z M 132.8385162353516 179.4490203857422 L 134.8385162353516 179.4496459960938 L 134.837890625 181.4496459960938 C 134.837890625 181.4496459960938 132.837890625 181.4490203857422 132.837890625 181.4490203857422 L 132.8385162353516 179.4490203857422 Z M 127.8385162353516 179.4474792480469 L 129.8385162353516 179.4480895996094 L 129.837890625 181.4480895996094 C 129.837890625 181.4480895996094 127.837890625 181.4474639892578 127.837890625 181.4474639892578 L 127.8385162353516 179.4474792480469 Z M 122.8385162353516 179.4459228515625 L 124.8385162353516 179.4465484619141 L 124.837890625 181.4465484619141 C 124.837890625 181.4465484619141 122.837890625 181.4459228515625 122.837890625 181.4459228515625 L 122.8385162353516 179.4459228515625 Z M 117.8385162353516 179.4443664550781 L 119.8385162353516 179.4449920654297 L 119.837890625 181.4449920654297 L 119.8063735961914 181.4449920654297 C 119.5515823364258 181.4449005126953 117.837890625 181.4443664550781 117.837890625 181.4443664550781 L 117.8385162353516 179.4443664550781 Z M 112.8385162353516 179.4428253173828 L 114.8385162353516 179.4434509277344 L 114.837890625 181.4434509277344 L 114.004508972168 181.4431915283203 C 113.4556427001953 181.4430084228516 112.837890625 181.4428253173828 112.837890625 181.4428253173828 L 112.8385162353516 179.4428253173828 Z M 107.8385162353516 179.4412689208984 L 109.8385162353516 179.44189453125 L 109.837890625 181.44189453125 L 108.094123840332 181.4413452148438 C 107.9383087158203 181.4412994384766 107.837890625 181.4412689208984 107.837890625 181.4412689208984 L 107.8385162353516 179.4412689208984 Z M 102.8385162353516 179.4397277832031 L 104.8385162353516 179.4403533935547 L 104.837890625 181.4403533935547 L 102.837890625 181.4397277832031 L 102.8385162353516 179.4397277832031 Z M 97.83851623535156 179.4381713867188 L 99.83851623535156 179.4387969970703 L 99.837890625 181.4387969970703 L 97.837890625 181.4381713867188 L 97.83851623535156 179.4381713867188 Z M 92.83851623535156 179.4366149902344 L 94.83851623535156 179.4372406005859 L 94.837890625 181.4372406005859 L 92.837890625 181.4366149902344 L 92.83851623535156 179.4366149902344 Z M 87.83851623535156 179.4350738525391 L 89.83851623535156 179.4356994628906 L 89.837890625 181.4356994628906 L 87.837890625 181.43505859375 L 87.83851623535156 179.4350738525391 Z M 82.83851623535156 179.4335174560547 L 84.83851623535156 179.4341278076172 L 84.837890625 181.4341278076172 C 84.837890625 181.4341278076172 84.21833038330078 181.4339294433594 83.66887664794922 181.4337768554688 L 82.837890625 181.4335174560547 L 82.83851623535156 179.4335174560547 Z M 77.83851623535156 179.4319763183594 L 79.83851623535156 179.4325714111328 L 79.837890625 181.4325714111328 C 79.837890625 181.4325714111328 79.3489990234375 181.4324188232422 78.8546142578125 181.4322814941406 L 77.837890625 181.4319610595703 L 77.83851623535156 179.4319763183594 Z M 72.83851623535156 179.430419921875 L 74.83851623535156 179.4310150146484 L 74.837890625 181.4310150146484 C 74.837890625 181.4310150146484 74.46022033691406 181.430908203125 74.03317260742188 181.4307861328125 L 72.837890625 181.4304046630859 L 72.83851623535156 179.430419921875 Z M 67.83851623535156 179.4288482666016 L 69.83851623535156 179.4294738769531 L 69.837890625 181.4294738769531 C 69.837890625 181.4294738769531 67.837890625 181.4288482666016 67.837890625 181.4288482666016 L 67.83851623535156 179.4288482666016 Z M 62.83851623535156 179.4272918701172 L 64.83851623535156 179.4279174804688 L 64.837890625 181.4279174804688 C 64.837890625 181.4279174804688 62.837890625 181.4272918701172 62.837890625 181.4272918701172 L 62.83851623535156 179.4272918701172 Z M 57.83851623535156 179.4257507324219 L 59.83851623535156 179.4263763427734 L 59.837890625 181.4263763427734 C 59.837890625 181.4263763427734 57.837890625 181.4257507324219 57.837890625 181.4257507324219 L 57.83851623535156 179.4257507324219 Z M 52.83851623535156 179.4241943359375 L 54.83851623535156 179.4248199462891 L 54.837890625 181.4248199462891 C 54.837890625 181.4248199462891 52.837890625 181.4241943359375 52.837890625 181.4241943359375 L 52.83851623535156 179.4241943359375 Z M 47.83851623535156 179.4226531982422 L 49.83851623535156 179.4232788085938 L 49.837890625 181.4232788085938 L 49.44426727294922 181.4231414794922 C 48.86166381835938 181.4229736328125 47.837890625 181.4226531982422 47.837890625 181.4226531982422 L 47.83851623535156 179.4226531982422 Z M 42.83851623535156 179.4210968017578 L 44.83851623535156 179.4217224121094 L 44.837890625 181.4217224121094 L 43.59543609619141 181.4213256835938 C 43.18810272216797 181.4212036132812 42.837890625 181.4210968017578 42.837890625 181.4210968017578 L 42.83851623535156 179.4210968017578 Z M 37.83851623535156 179.4195404052734 L 39.83851623535156 179.420166015625 L 39.837890625 181.420166015625 L 37.837890625 181.4195404052734 L 37.83851623535156 179.4195404052734 Z M 32.83851623535156 179.4179992675781 L 34.83851623535156 179.4186248779297 L 34.837890625 181.4186248779297 L 32.837890625 181.4179992675781 L 32.83851623535156 179.4179992675781 Z M 27.83851623535156 179.4164428710938 L 29.83851623535156 179.4170684814453 L 29.837890625 181.4170684814453 L 27.837890625 181.4164428710938 L 27.83851623535156 179.4164428710938 Z M 22.83851623535156 179.4149017333984 L 24.83851623535156 179.41552734375 L 24.837890625 181.41552734375 L 22.837890625 181.4148864746094 L 22.83851623535156 179.4149017333984 Z M 17.83851623535156 179.4133453369141 L 19.83851623535156 179.4139709472656 L 19.837890625 181.4139709472656 L 17.837890625 181.4133453369141 L 17.83851623535156 179.4133453369141 Z M 12.83851623535156 179.4118041992188 L 14.83851623535156 179.4123992919922 L 14.837890625 181.4123992919922 C 14.837890625 181.4123992919922 14.28695678710938 181.4122314453125 13.76341247558594 181.4120788574219 L 12.837890625 181.4117889404297 L 12.83851623535156 179.4118041992188 Z M 7.838516235351562 179.4102478027344 L 9.838516235351562 179.4108428955078 L 9.837890625 181.4108428955078 C 9.837890625 181.4108428955078 9.400650024414062 181.4107208251953 8.935089111328125 181.4105682373047 L 7.837890625 181.4102325439453 L 7.838516235351562 179.4102478027344 Z M 2.838516235351562 179.4086761474609 L 4.838516235351562 179.4093017578125 L 4.837890625 181.4093017578125 C 4.837890625 181.4093017578125 2.837890625 181.4086761474609 2.837890625 181.4086761474609 L 2.838516235351562 179.4086761474609 Z M -1.458602905273438 179.4073486328125 L -0.1614837646484375 179.4077453613281 L -0.161895751953125 180.7208404541016 L 0.534637451171875 180.7244262695312 L 0.5311431884765625 181.4079742431641 L -1.468887329101562 181.4073486328125 L -1.468887329101562 181.4073486328125 C -1.468887329101562 181.4073486328125 -1.468887329101562 181.4073486328125 -1.468887329101562 181.4073486328125 L -1.468887329101562 181.4073486328125 L -1.468887329101562 181.4073486328125 L -1.468887329101562 181.4073486328125 C -1.468887329101562 181.4073486328125 -1.468887329101562 181.4073486328125 -1.468887329101562 181.4073486328125 L -1.458602905273438 179.4073486328125 Z M -1.439605712890625 175.7142028808594 L 0.56036376953125 175.7245025634766 L 0.5500640869140625 177.7244720458984 L -1.449905395507812 177.7141723632812 L -1.44415283203125 176.5959014892578 C -1.441787719726562 176.1382598876953 -1.439605712890625 175.7142028808594 -1.439605712890625 175.7142028808594 Z M -1.413909912109375 170.7142639160156 L 0.5860595703125 170.7245483398438 L 0.5757904052734375 172.7245178222656 L -1.424179077148438 172.7142486572266 C -1.424179077148438 172.7142486572266 -1.413909912109375 170.7142639160156 -1.413909912109375 170.7142639160156 Z M -1.388214111328125 165.7143402099609 L 0.6117706298828125 165.7246246337891 L 0.6014862060546875 167.7245941162109 L -1.398483276367188 167.7143249511719 C -1.398483276367188 167.7143249511719 -1.388214111328125 165.7143402099609 -1.388214111328125 165.7143402099609 Z M -1.362503051757812 160.7144012451172 L 0.6374664306640625 160.7247009277344 L 0.627197265625 162.7246704101562 L -1.372787475585938 162.7143707275391 C -1.372787475585938 162.7143707275391 -1.368850708007812 161.9479522705078 -1.3658447265625 161.3639831542969 L -1.3658447265625 161.3630828857422 C -1.365829467773438 161.3620452880859 -1.365829467773438 161.3609771728516 -1.365829467773438 161.3599395751953 L -1.365798950195312 161.3558044433594 C -1.365798950195312 161.3555755615234 -1.365798950195312 161.3553619384766 -1.365798950195312 161.3551330566406 L -1.365615844726562 161.3188781738281 C -1.365615844726562 161.3179626464844 -1.3656005859375 161.3170471191406 -1.3656005859375 161.3161468505859 L -1.365585327148438 161.3123016357422 C -1.365585327148438 161.3119659423828 -1.365570068359375 161.3115539550781 -1.365570068359375 161.3112182617188 L -1.362503051757812 160.7144012451172 Z M -1.336807250976562 155.7144775390625 L 0.6631622314453125 155.7247467041016 L 0.65289306640625 157.7247161865234 L -1.347091674804688 157.7144470214844 C -1.347091674804688 157.7144470214844 -1.346466064453125 157.5937652587891 -1.345535278320312 157.4116516113281 L -1.34552001953125 157.4091033935547 C -1.34552001953125 157.4085998535156 -1.345504760742188 157.4081115722656 -1.345504760742188 157.4076080322266 L -1.345458984375 157.3968200683594 C -1.345443725585938 157.3961334228516 -1.345443725585938 157.3955230712891 -1.345443725585938 157.3948211669922 L -1.345428466796875 157.3916320800781 C -1.345413208007812 157.3901977539062 -1.345413208007812 157.3887634277344 -1.34539794921875 157.3873291015625 L -1.345382690429688 157.3827972412109 C -1.345382690429688 157.3821868896484 -1.345367431640625 157.3815002441406 -1.345367431640625 157.3808898925781 L -1.345352172851562 157.3782653808594 C -1.345352172851562 157.3777923583984 -1.345352172851562 157.3774108886719 -1.345352172851562 157.3769378662109 L -1.345291137695312 157.3645782470703 C -1.34527587890625 157.3627624511719 -1.345260620117188 157.3608856201172 -1.345260620117188 157.3590698242188 L -1.345230102539062 157.3548431396484 C -1.345230102539062 157.3528289794922 -1.34521484375 157.3508758544922 -1.345199584960938 157.3488311767578 L -1.336807250976562 155.7144775390625 Z M -1.311111450195312 150.7145385742188 L 0.688873291015625 150.7248229980469 L 0.6785888671875 152.7247924804688 L -1.321380615234375 152.7145233154297 L -1.31109619140625 150.7145385742188 Z M -1.285415649414062 145.714599609375 L 0.714569091796875 145.7248992919922 L 0.70428466796875 147.7248687744141 L -1.295684814453125 147.7145690917969 L -1.285400390625 145.714599609375 Z M -1.259689331054688 140.7146759033203 L 0.74029541015625 140.7249450683594 L 0.7299957275390625 142.7249145507812 L -1.269989013671875 142.7146453857422 L -1.264907836914062 141.7294006347656 C -1.264907836914062 141.7292785644531 -1.264907836914062 141.7292785644531 -1.264907836914062 141.7291564941406 L -1.264877319335938 141.7244873046875 C -1.264877319335938 141.7236328125 -1.264877319335938 141.7227630615234 -1.264877319335938 141.7219085693359 L -1.264846801757812 141.7183532714844 C -1.264846801757812 141.7179260253906 -1.264846801757812 141.717529296875 -1.264846801757812 141.7171020507812 L -1.26483154296875 141.7129974365234 C -1.264816284179688 141.7119598388672 -1.264816284179688 141.7109222412109 -1.264816284179688 141.7098846435547 L -1.264801025390625 141.7080535888672 C -1.262237548828125 141.2102661132812 -1.259689331054688 140.7146759033203 -1.259689331054688 140.7146759033203 Z M -1.233978271484375 135.7147521972656 L 0.7659912109375 135.7250213623047 L 0.7556915283203125 137.7250061035156 L -1.2442626953125 137.7147216796875 C -1.2442626953125 137.7147216796875 -1.233978271484375 135.7147521972656 -1.233978271484375 135.7147521972656 Z M -1.208282470703125 130.7147979736328 L 0.79168701171875 130.7250671386719 L 0.7814178466796875 132.7250518798828 L -1.218551635742188 132.7147674560547 C -1.218551635742188 132.7147674560547 -1.208282470703125 130.7147979736328 -1.208282470703125 130.7147979736328 Z M -1.182586669921875 125.7148742675781 L 0.8173980712890625 125.7251434326172 L 0.8071136474609375 127.7251205444336 L -1.192855834960938 127.71484375 C -1.192855834960938 127.71484375 -1.186843872070312 126.5426940917969 -1.18402099609375 125.9931030273438 L -1.184005737304688 125.9926910400391 C -1.183990478515625 125.987922668457 -1.1839599609375 125.983154296875 -1.183944702148438 125.9784851074219 L -1.183914184570312 125.9731521606445 C -1.18389892578125 125.9714965820312 -1.18389892578125 125.9698791503906 -1.183883666992188 125.9682312011719 L -1.183883666992188 125.968132019043 C -1.183883666992188 125.9666900634766 -1.183868408203125 125.96533203125 -1.183868408203125 125.9639129638672 L -1.183792114257812 125.9514465332031 C -1.183792114257812 125.9507446289062 -1.183792114257812 125.9499664306641 -1.183792114257812 125.9492645263672 L -1.1837158203125 125.9348831176758 C -1.1837158203125 125.9347686767578 -1.1837158203125 125.9346160888672 -1.1837158203125 125.9344940185547 L -1.183639526367188 125.9199981689453 C -1.183639526367188 125.919677734375 -1.183639526367188 125.9193801879883 -1.183639526367188 125.9190673828125 L -1.182586669921875 125.7148742675781 Z M -1.156890869140625 120.7149505615234 L 0.8430938720703125 120.7252197265625 L 0.8328094482421875 122.7251968383789 L -1.167160034179688 122.7148971557617 C -1.167160034179688 122.7148971557617 -1.16571044921875 122.4342269897461 -1.163909912109375 122.0832366943359 L -1.163909912109375 122.0813751220703 C -1.163833618164062 122.0670623779297 -1.16375732421875 122.0527191162109 -1.163681030273438 122.0381927490234 L -1.163681030273438 122.0372924804688 C -1.16363525390625 122.0302581787109 -1.163604736328125 122.0232391357422 -1.16357421875 122.0161590576172 L -1.163558959960938 122.0151214599609 C -1.163528442382812 122.0088653564453 -1.163497924804688 122.0025939941406 -1.163467407226562 121.9962997436523 L -1.163421630859375 121.9880523681641 C -1.163421630859375 121.9862899780273 -1.163406372070312 121.9845504760742 -1.16339111328125 121.982780456543 L -1.163375854492188 121.9775314331055 C -1.163360595703125 121.9757537841797 -1.163345336914062 121.9738845825195 -1.163345336914062 121.9721069335938 L -1.156875610351562 120.7149505615234 Z M -1.131179809570312 115.7149963378906 L 0.8687896728515625 115.7252731323242 L 0.8585205078125 117.7252502441406 L -1.141464233398438 117.714973449707 L -1.131179809570312 115.7149963378906 Z M -1.105484008789062 110.7150726318359 L 0.8944854736328125 110.7253494262695 L 0.88421630859375 112.7253189086914 L -1.115753173828125 112.7150497436523 L -1.10546875 110.7150726318359 Z M -1.079757690429688 105.7151184082031 L 0.9202117919921875 105.7254180908203 L 0.909912109375 107.7253952026367 L -1.090057373046875 107.7150955200195 L -1.085617065429688 106.8533096313477 C -1.08282470703125 106.3117828369141 -1.079757690429688 105.7151184082031 -1.079757690429688 105.7151184082031 Z M -1.054061889648438 100.7151947021484 L 0.9459228515625 100.725471496582 L 0.9356231689453125 102.7254486083984 L -1.064361572265625 102.7151718139648 L -1.058059692382812 101.4923858642578 C -1.058059692382812 101.490837097168 -1.05804443359375 101.4892501831055 -1.05804443359375 101.4877014160156 L -1.058013916015625 101.481689453125 C -1.055892944335938 101.0705718994141 -1.054061889648438 100.7151947021484 -1.054061889648438 100.7151947021484 Z M -1.028366088867188 95.71527099609375 L 0.97161865234375 95.72554779052734 L 0.961334228515625 97.72552490234375 L -1.03863525390625 97.71524810791016 C -1.03863525390625 97.71524810791016 -1.028366088867188 95.71527099609375 -1.028366088867188 95.71527099609375 Z M -1.002655029296875 90.71532440185547 L 0.997314453125 90.72562408447266 L 0.9870452880859375 92.72559356689453 L -1.012939453125 92.71529388427734 C -1.012939453125 92.71529388427734 -1.002655029296875 90.71532440185547 -1.002655029296875 90.71532440185547 Z M -0.976959228515625 85.71539306640625 L 1.02301025390625 85.72566986083984 L 1.012741088867188 87.72564697265625 L -0.9872283935546875 87.71537017822266 C -0.9872283935546875 87.71537017822266 -0.9846649169921875 87.21546173095703 -0.9821014404296875 86.71546936035156 L -0.9821014404296875 86.71532440185547 C -0.9820556640625 86.70806121826172 -0.982025146484375 86.70091247558594 -0.9819793701171875 86.69365692138672 L -0.981964111328125 86.69083404541016 C -0.981964111328125 86.68924713134766 -0.9819488525390625 86.68775939941406 -0.9819488525390625 86.68617248535156 L -0.9819488525390625 86.68603515625 C -0.9819183349609375 86.68085479736328 -0.9818878173828125 86.67574310302734 -0.98187255859375 86.67055511474609 L -0.9818572998046875 86.66738891601562 C -0.981842041015625 86.66470336914062 -0.9818267822265625 86.66204071044922 -0.9818115234375 86.65936279296875 L -0.9817962646484375 86.65557098388672 C -0.981781005859375 86.65380096435547 -0.9817657470703125 86.65207672119141 -0.9817657470703125 86.65030670166016 L -0.981719970703125 86.64292144775391 C -0.981719970703125 86.64206695556641 -0.981719970703125 86.64122009277344 -0.9817047119140625 86.64037322998047 L -0.976959228515625 85.71539306640625 Z M -0.951263427734375 80.71546936035156 L 1.048721313476562 80.72574615478516 L 1.038436889648438 82.72572326660156 L -0.9615325927734375 82.71544647216797 L -0.9615325927734375 82.71540832519531 C -0.9615325927734375 82.71539306640625 -0.9615325927734375 82.71538543701172 -0.9615325927734375 82.71537780761719 L -0.9615325927734375 82.71533203125 C -0.9615325927734375 82.71528625488281 -0.9615325927734375 82.71521759033203 -0.9615325927734375 82.71513366699219 L -0.9615325927734375 82.71498107910156 C -0.9615325927734375 82.71475982666016 -0.9615325927734375 82.71445465087891 -0.9615325927734375 82.71408081054688 L -0.9615325927734375 82.71390533447266 C -0.961517333984375 82.71298217773438 -0.961517333984375 82.71163940429688 -0.9615020751953125 82.70990753173828 L -0.9615020751953125 82.70957183837891 C -0.9615020751953125 82.70866394042969 -0.96148681640625 82.70767211914062 -0.96148681640625 82.70656585693359 L -0.96148681640625 82.70648956298828 C -0.96148681640625 82.70533752441406 -0.9614715576171875 82.70405578613281 -0.9614715576171875 82.70269012451172 L -0.9614715576171875 82.70265960693359 C -0.961456298828125 82.70137023925781 -0.961456298828125 82.69997406005859 -0.9614410400390625 82.69850158691406 L -0.9614410400390625 82.69738006591797 C -0.9614410400390625 82.69702911376953 -0.9614410400390625 82.69668579101562 -0.9614410400390625 82.69632720947266 L -0.96142578125 82.69535827636719 C -0.96142578125 82.69512176513672 -0.96142578125 82.69490051269531 -0.96142578125 82.69466400146484 L -0.9614105224609375 82.69242095947266 C -0.9614105224609375 82.6922607421875 -0.9614105224609375 82.69210052490234 -0.9614105224609375 82.69194030761719 L -0.9614105224609375 82.69137573242188 C -0.9614105224609375 82.69107818603516 -0.9614105224609375 82.6907958984375 -0.9614105224609375 82.69049072265625 L -0.961395263671875 82.68796539306641 C -0.961395263671875 82.68795013427734 -0.961395263671875 82.68794250488281 -0.961395263671875 82.68791961669922 L -0.9613800048828125 82.68660736083984 C -0.9613800048828125 82.68486022949219 -0.96136474609375 82.68305206298828 -0.96136474609375 82.68116760253906 L -0.9613494873046875 82.68032073974609 C -0.9613494873046875 82.67829132080078 -0.961334228515625 82.67617034912109 -0.9613189697265625 82.67397308349609 L -0.9613189697265625 82.67338562011719 C -0.9613189697265625 82.67233276367188 -0.9613037109375 82.67123413085938 -0.9613037109375 82.67014312744141 L -0.9612579345703125 82.661376953125 C -0.9612579345703125 82.66102600097656 -0.9612579345703125 82.66066741943359 -0.9612579345703125 82.66031646728516 L -0.961212158203125 82.65264129638672 C -0.961212158203125 82.65243530273438 -0.961212158203125 82.65220642089844 -0.961212158203125 82.65199279785156 L -0.9512481689453125 80.71546936035156 Z M -0.9255523681640625 75.71552276611328 L 1.074417114257812 75.72582244873047 L 1.06414794921875 77.72579956054688 L -0.9358367919921875 77.71549987792969 L -0.9255523681640625 75.71552276611328 Z M -0.89984130859375 70.71559906005859 L 1.100112915039062 70.72586822509766 L 1.08984375 72.72584533691406 L -0.9101409912109375 72.71556854248047 L -0.906463623046875 72.00233459472656 C -0.906463623046875 72.00209808349609 -0.906463623046875 72.00189208984375 -0.906463623046875 72.00165557861328 L -0.90643310546875 71.9964599609375 C -0.90643310546875 71.99639892578125 -0.90643310546875 71.996337890625 -0.90643310546875 71.99628448486328 L -0.9063873291015625 71.98919677734375 C -0.9034423828125 71.41712951660156 -0.89984130859375 70.71559906005859 -0.89984130859375 70.71559906005859 Z M -0.8741302490234375 65.71567535400391 L 1.125839233398438 65.72594451904297 L 1.11553955078125 67.72592163085938 L -0.884429931640625 67.71564483642578 L -0.87884521484375 66.63166809082031 C -0.87884521484375 66.63045501708984 -0.87884521484375 66.62921905517578 -0.8788299560546875 66.62799835205078 L -0.8787994384765625 66.62039947509766 C -0.8763885498046875 66.15409851074219 -0.8741302490234375 65.71567535400391 -0.8741302490234375 65.71567535400391 Z M -0.8484344482421875 60.71572113037109 L 1.151535034179688 60.72599792480469 L 1.1412353515625 62.72597503662109 L -0.85870361328125 62.7156982421875 C -0.85870361328125 62.7156982421875 -0.8484344482421875 60.71572113037109 -0.8484344482421875 60.71572113037109 Z M -0.8227386474609375 55.71579742431641 L 1.17724609375 55.72607421875 L 1.166961669921875 57.72604370117188 L -0.8330078125 57.71577453613281 C -0.8330078125 57.71577453613281 -0.8227386474609375 55.71579742431641 -0.8227386474609375 55.71579742431641 Z M -0.797027587890625 50.71586608886719 L 1.20294189453125 50.72615051269531 L 1.192672729492188 52.72611999511719 L -0.80731201171875 52.7158203125 C -0.80731201171875 52.7158203125 -0.802886962890625 51.85546875 -0.7998504638671875 51.26335144042969 L -0.799835205078125 51.26173400878906 C -0.7998046875 51.255615234375 -0.799774169921875 51.24958801269531 -0.79974365234375 51.2435302734375 L -0.799713134765625 51.23828125 C -0.7996978759765625 51.23323059082031 -0.7996673583984375 51.22811889648438 -0.7996368408203125 51.22309875488281 L -0.7996063232421875 51.21800231933594 C -0.7996063232421875 51.21800231933594 -0.7996063232421875 51.2178955078125 -0.7996063232421875 51.2178955078125 L -0.797027587890625 50.71586608886719 Z M -0.771331787109375 45.71592712402344 L 1.2286376953125 45.7261962890625 L 1.218368530273438 47.72616577148438 L -0.7816162109375 47.71589660644531 C -0.7816162109375 47.71589660644531 -0.780975341796875 47.59111022949219 -0.779998779296875 47.40383911132812 L -0.779998779296875 47.40283203125 C -0.7798919677734375 47.38020324707031 -0.7797698974609375 47.35670471191406 -0.779632568359375 47.33236694335938 L -0.7796173095703125 47.32736206054688 C -0.77960205078125 47.32533264160156 -0.7795867919921875 47.32322692871094 -0.7795867919921875 47.32118225097656 L -0.7795257568359375 47.30964660644531 C -0.779510498046875 47.30879211425781 -0.779510498046875 47.3079833984375 -0.779510498046875 47.30712890625 L -0.7794952392578125 47.30482482910156 C -0.7794952392578125 47.30442810058594 -0.7794952392578125 47.30400085449219 -0.7794952392578125 47.30360412597656 L -0.779449462890625 47.29463195800781 C -0.779449462890625 47.29443359375 -0.779449462890625 47.29429626464844 -0.7794342041015625 47.29409790039062 L -0.771331787109375 45.71592712402344 Z M -0.745635986328125 40.71600341796875 L 1.25433349609375 40.72627258300781 L 1.244064331054688 42.72624206542969 L -0.7559051513671875 42.71597290039062 L -0.7456207275390625 40.71600341796875 Z M -0.719940185546875 35.71604919433594 L 1.280044555664062 35.72634887695312 L 1.269760131835938 37.726318359375 L -0.7302093505859375 37.71601867675781 L -0.7199249267578125 35.71604919433594 Z M -0.6942138671875 30.71612548828125 L 1.305770874023438 30.72639465332031 L 1.29547119140625 32.72636413574219 L -0.7045135498046875 32.71609497070312 L -0.69952392578125 31.74850463867188 C -0.69952392578125 31.74832153320312 -0.69952392578125 31.74822998046875 -0.69952392578125 31.748046875 L -0.6995086669921875 31.74372863769531 C -0.699493408203125 31.74263000488281 -0.699493408203125 31.74162292480469 -0.6994781494140625 31.74052429199219 L -0.6994781494140625 31.73890686035156 C -0.696868896484375 31.23146057128906 -0.6942138671875 30.71612548828125 -0.6942138671875 30.71612548828125 Z M -0.6685028076171875 25.71620178222656 L 1.331466674804688 25.72647094726562 L 1.3211669921875 27.7264404296875 L -0.6787872314453125 27.71617126464844 C -0.6787872314453125 27.71617126464844 -0.6685028076171875 25.71620178222656 -0.6685028076171875 25.71620178222656 Z M -0.6428070068359375 20.71624755859375 L 1.357162475585938 20.72654724121094 L 1.346893310546875 22.72651672363281 L -0.6530914306640625 22.71621704101562 C -0.6530914306640625 22.71621704101562 -0.6428070068359375 20.71624755859375 -0.6428070068359375 20.71624755859375 Z M -0.6171112060546875 15.71632385253906 L 1.382858276367188 15.72659301757812 L 1.372589111328125 17.72657775878906 L -0.62738037109375 17.71629333496094 C -0.62738037109375 17.71629333496094 -0.6208648681640625 16.44648742675781 -0.6182098388671875 15.93048095703125 L -0.6182098388671875 15.93026733398438 C -0.6181640625 15.92291259765625 -0.618133544921875 15.9156494140625 -0.61810302734375 15.90861511230469 L -0.6180877685546875 15.90760803222656 C -0.6180877685546875 15.90681457519531 -0.6180877685546875 15.90603637695312 -0.618072509765625 15.90524291992188 L -0.618072509765625 15.90293884277344 C -0.618072509765625 15.90283203125 -0.618072509765625 15.90269470214844 -0.618072509765625 15.90257263183594 L -0.6180572509765625 15.89999389648438 C -0.6180267333984375 15.89356994628906 -0.61798095703125 15.88728332519531 -0.617950439453125 15.88113403320312 L -0.617950439453125 15.87918090820312 C -0.6179351806640625 15.87858581542969 -0.6179351806640625 15.87797546386719 -0.6179351806640625 15.87736511230469 L -0.617919921875 15.8756103515625 C -0.617919921875 15.87522888183594 -0.617919921875 15.87490844726562 -0.617919921875 15.87451171875 L -0.6178741455078125 15.86534118652344 C -0.6178741455078125 15.86506652832031 -0.6178741455078125 15.86474609375 -0.6178741455078125 15.86448669433594 L -0.61785888671875 15.862548828125 C -0.61785888671875 15.86199951171875 -0.61785888671875 15.86154174804688 -0.61785888671875 15.86100769042969 L -0.6178436279296875 15.85902404785156 C -0.617828369140625 15.85751342773438 -0.617828369140625 15.85606384277344 -0.6178131103515625 15.85456848144531 L -0.6178131103515625 15.85304260253906 C -0.6178131103515625 15.85250854492188 -0.6178131103515625 15.85198974609375 -0.6177978515625 15.85147094726562 L -0.6171112060546875 15.71632385253906 Z M -0.5914154052734375 10.71640014648438 L 1.4085693359375 10.72666931152344 L 1.398284912109375 12.72665405273438 L -0.6016845703125 12.71636962890625 C -0.6016845703125 12.71636962890625 -0.5998687744140625 12.36253356933594 -0.5977630615234375 11.95256042480469 L -0.5977325439453125 11.94827270507812 C -0.59771728515625 11.9447021484375 -0.5977020263671875 11.94122314453125 -0.597686767578125 11.93763732910156 L -0.597686767578125 11.93731689453125 C -0.5976715087890625 11.93438720703125 -0.59765625 11.93153381347656 -0.5976409912109375 11.92860412597656 L -0.5976104736328125 11.92422485351562 C -0.5976104736328125 11.92327880859375 -0.5976104736328125 11.92239379882812 -0.59759521484375 11.92143249511719 L -0.59759521484375 11.919189453125 C -0.5975799560546875 11.91786193847656 -0.5975799560546875 11.91654968261719 -0.597564697265625 11.91522216796875 L -0.597564697265625 11.91363525390625 C -0.5975494384765625 11.91230773925781 -0.5975494384765625 11.91098022460938 -0.5975341796875 11.90966796875 L -0.5974578857421875 11.89483642578125 C -0.5974578857421875 11.89453125 -0.5974578857421875 11.89427185058594 -0.5974578857421875 11.89396667480469 L -0.591400146484375 10.71640014648438 Z M -0.565704345703125 5.716445922851562 L 1.43426513671875 5.72674560546875 L 1.423995971679688 7.726715087890625 L -0.57598876953125 7.716415405273438 L -0.565704345703125 5.716445922851562 Z M -0.412078857421875 0.8436737060546875 L -0.4120635986328125 0.84576416015625 L 1.459320068359375 0.855377197265625 L -0.4120635986328125 0.84576416015625 L -0.4120635986328125 0.84576416015625 L 1.459320068359375 0.855377197265625 L 1.449691772460938 2.726776123046875 L -0.3914794921875 2.717315673828125 L -0.3900909423828125 2.84356689453125 L -0.5186614990234375 2.844970703125 L -0.5200653076171875 2.716644287109375 L -0.5200653076171875 2.716644287109375 L -0.5186614990234375 2.844970703125 L -0.5200653076171875 2.716644287109375 L -0.5502777099609375 2.71649169921875 L -0.541473388671875 1.00323486328125 C -0.541473388671875 1.002899169921875 -0.541473388671875 1.002578735351562 -0.541473388671875 1.002243041992188 L -0.54144287109375 0.997467041015625 C -0.54144287109375 0.9970703125 -0.54144287109375 0.9966278076171875 -0.54144287109375 0.9962310791015625 L -0.541412353515625 0.9905242919921875 C -0.541412353515625 0.990325927734375 -0.5413970947265625 0.9901123046875 -0.5413970947265625 0.98992919921875 L -0.5413818359375 0.9842681884765625 C -0.5413818359375 0.9842681884765625 -0.5413818359375 0.9842071533203125 -0.5413818359375 0.9842071533203125 L -0.541259765625 0.9609375 C -0.541259765625 0.9608306884765625 -0.541259765625 0.9607391357421875 -0.541259765625 0.9606170654296875 L -0.5411376953125 0.9368743896484375 C -0.5411224365234375 0.9366912841796875 -0.5411224365234375 0.9364776611328125 -0.5411224365234375 0.9362945556640625 L -0.5411224365234375 0.934478759765625 C -0.541107177734375 0.933319091796875 -0.541107177734375 0.9321746826171875 -0.541107177734375 0.9310455322265625 L -0.5410919189453125 0.9293975830078125 C -0.5410919189453125 0.9292144775390625 -0.5410919189453125 0.9290313720703125 -0.5410919189453125 0.9288482666015625 L -0.5410614013671875 0.9225616455078125 C -0.5410614013671875 0.9222564697265625 -0.5410614013671875 0.9219207763671875 -0.541046142578125 0.921600341796875 L -0.541046142578125 0.920013427734375 C -0.541046142578125 0.9195556640625 -0.541046142578125 0.919158935546875 -0.5410308837890625 0.918701171875 L -0.541015625 0.9151153564453125 C -0.5410003662109375 0.9127044677734375 -0.5410003662109375 0.9103546142578125 -0.540985107421875 0.908050537109375 L -0.540985107421875 0.90704345703125 C -0.540771484375 0.8673858642578125 -0.5406646728515625 0.8450927734375 -0.5406646728515625 0.8450927734375 L -0.5406646728515625 0.8450927734375 L -0.5406646728515625 0.8450927734375 L -0.5406646728515625 0.8450927734375 L -0.5406646728515625 0.8450927734375 L -0.5406646728515625 0.8450927734375 L -0.5406646728515625 0.8450927734375 L -0.5406646728515625 0.8450927734375 L -0.5406646728515625 0.8450927734375 L -0.5406646728515625 0.8450927734375 L -0.5406646728515625 0.8450927734375 L -0.5406646728515625 0.8450927734375 L -0.5406646728515625 0.8450927734375 L -0.5406646728515625 0.8450927734375 C -0.5406646728515625 0.8450927734375 -0.5402984619140625 0.8450927734375 -0.5395965576171875 0.8450775146484375 L -0.5406646728515625 0.8450927734375 C -0.5386505126953125 0.8450775146484375 -0.53839111328125 0.8450775146484375 -0.538116455078125 0.845062255859375 L -0.412078857421875 0.84368896484375 Z M 4.587615966796875 0.788665771484375 L 4.609619140625 2.788543701171875 L 2.6097412109375 2.810546875 L 2.587738037109375 0.8106689453125 L 4.587615966796875 0.7886810302734375 Z M 9.587318420410156 0.733673095703125 L 9.60931396484375 2.733551025390625 L 7.60943603515625 2.75555419921875 L 7.587417602539062 0.75567626953125 L 7.941986083984375 0.75177001953125 C 7.942367553710938 0.75177001953125 7.942764282226562 0.75177001953125 7.943161010742188 0.7517547607421875 L 7.958267211914062 0.7515869140625 C 7.958572387695312 0.7515869140625 7.95892333984375 0.7515869140625 7.959228515625 0.7515869140625 L 7.978012084960938 0.751373291015625 C 7.9794921875 0.7513580322265625 7.980987548828125 0.7513427734375 7.982467651367188 0.7513275146484375 L 7.982711791992188 0.7513275146484375 C 7.985702514648438 0.7512969970703125 7.988601684570312 0.751251220703125 7.991607666015625 0.751220703125 L 7.992446899414062 0.751220703125 C 7.998062133789062 0.75115966796875 8.003646850585938 0.7510986328125 8.00933837890625 0.75103759765625 L 8.013381958007812 0.7509918212890625 C 8.01593017578125 0.7509613037109375 8.018539428710938 0.7509307861328125 8.021102905273438 0.7509002685546875 L 8.021820068359375 0.7509002685546875 C 8.02423095703125 0.7508697509765625 8.02667236328125 0.7508392333984375 8.029098510742188 0.7508087158203125 L 8.032608032226562 0.7507781982421875 C 8.033584594726562 0.750762939453125 8.034637451171875 0.7507476806640625 8.035629272460938 0.7507476806640625 L 8.036605834960938 0.750732421875 C 8.040863037109375 0.7506866455078125 8.045150756835938 0.750640869140625 8.049453735351562 0.7505950927734375 L 8.052825927734375 0.75054931640625 C 8.054306030273438 0.7505340576171875 8.055740356445312 0.750518798828125 8.057220458984375 0.7505035400390625 L 8.059722900390625 0.7504730224609375 C 8.651039123535156 0.7439727783203125 9.587318420410156 0.733673095703125 9.587318420410156 0.733673095703125 Z M 14.58699035644531 0.6786651611328125 L 14.60901641845703 2.678543090820312 L 12.60911560058594 2.700546264648438 L 12.58711242675781 0.7006683349609375 C 12.58711242675781 0.7006683349609375 14.58699035644531 0.6786651611328125 14.58699035644531 0.6786651611328125 Z M 19.58669281005859 0.6236419677734375 L 19.60868835449219 2.623550415039062 L 17.60881805419922 2.645553588867188 L 17.58681488037109 0.6456756591796875 C 17.58681488037109 0.6456756591796875 18.11719512939453 0.63983154296875 18.6317138671875 0.6341705322265625 L 18.63613128662109 0.6341094970703125 C 18.63692474365234 0.6341094970703125 18.63771820068359 0.63409423828125 18.63851165771484 0.63409423828125 L 19.58669281005859 0.6236572265625 Z M 24.58638763427734 0.5686492919921875 L 24.60839080810547 2.568527221679688 L 22.60851287841797 2.59051513671875 L 22.58651733398438 0.5906524658203125 L 24.58638763427734 0.5686492919921875 Z M 29.58609008789062 0.513641357421875 L 29.60809326171875 2.513519287109375 L 27.60821533203125 2.5355224609375 L 27.58621215820312 0.53564453125 L 28.16096496582031 0.529327392578125 C 28.16168975830078 0.5293121337890625 28.16250610351562 0.5293121337890625 28.16323852539062 0.529296875 L 28.16627502441406 0.529266357421875 C 28.16867828369141 0.52923583984375 28.17110443115234 0.529205322265625 28.17352294921875 0.5291900634765625 L 28.19938659667969 0.528900146484375 C 28.19972991943359 0.528900146484375 28.20005035400391 0.528900146484375 28.20038604736328 0.5288848876953125 L 28.20522308349609 0.528839111328125 C 28.20522308349609 0.528839111328125 28.20532989501953 0.528839111328125 28.20532989501953 0.528839111328125 L 28.22581481933594 0.5286102294921875 C 28.22667694091797 0.528594970703125 28.22754669189453 0.528594970703125 28.22840881347656 0.5285797119140625 L 28.23127746582031 0.5285491943359375 C 28.23294067382812 0.528533935546875 28.23453521728516 0.5285186767578125 28.2362060546875 0.52850341796875 L 28.24758911132812 0.5283660888671875 C 28.25163269042969 0.5283203125 28.25581359863281 0.5282745361328125 28.25988006591797 0.528228759765625 L 28.26519012451172 0.5281829833984375 C 28.27188110351562 0.528106689453125 28.27864074707031 0.5280303955078125 28.28536987304688 0.5279541015625 L 28.28601837158203 0.5279541015625 C 28.29128265380859 0.52789306640625 28.29655456542969 0.52783203125 28.30184936523438 0.52777099609375 L 28.30466461181641 0.527740478515625 C 28.30490112304688 0.527740478515625 28.30522155761719 0.527740478515625 28.30545806884766 0.527740478515625 L 28.31146240234375 0.5276641845703125 C 28.88372802734375 0.5213775634765625 29.58609008789062 0.513641357421875 29.58609008789062 0.513641357421875 Z M 34.58579254150391 0.458648681640625 L 34.6077880859375 2.458526611328125 L 32.60791778564453 2.480514526367188 L 32.58591461181641 0.48065185546875 C 32.58591461181641 0.48065185546875 34.58579254150391 0.458648681640625 34.58579254150391 0.458648681640625 Z M 39.58548736572266 0.40362548828125 L 39.60749053955078 2.403518676757812 L 37.60761260986328 2.425521850585938 L 37.58561706542969 0.4256439208984375 C 37.58561706542969 0.4256439208984375 38.10079956054688 0.4199676513671875 38.60816192626953 0.4143829345703125 L 39.58548736572266 0.40362548828125 Z M 44.58518981933594 0.3486175537109375 L 44.60719299316406 2.348495483398438 L 42.60731506347656 2.370498657226562 L 42.58531951904297 0.3706207275390625 L 44.58518981933594 0.3486328125 Z M 49.58489227294922 0.2936248779296875 L 49.60688781738281 2.293502807617188 L 47.60701751708984 2.31549072265625 L 47.58501434326172 0.3156280517578125 L 48.32086944580078 0.307525634765625 C 48.32110595703125 0.307525634765625 48.32130432128906 0.307525634765625 48.32154083251953 0.307525634765625 L 48.34839630126953 0.307220458984375 C 48.34893035888672 0.307220458984375 48.34950256347656 0.3072052001953125 48.35003662109375 0.3072052001953125 L 48.35911560058594 0.3071136474609375 C 48.36048889160156 0.307098388671875 48.36187744140625 0.3070831298828125 48.36325073242188 0.30706787109375 L 48.36444091796875 0.3070526123046875 C 48.36688995361328 0.3070220947265625 48.36940002441406 0.3069915771484375 48.37184906005859 0.3069610595703125 L 48.38979339599609 0.3067626953125 C 48.38979339599609 0.3067626953125 48.38980102539062 0.3067626953125 48.38980102539062 0.3067626953125 L 48.39514923095703 0.3067169189453125 C 48.39532470703125 0.30670166015625 48.39549255371094 0.30670166015625 48.39567565917969 0.30670166015625 L 48.40428161621094 0.306610107421875 C 48.40602874755859 0.3065948486328125 48.40763092041016 0.30657958984375 48.40937805175781 0.306549072265625 L 48.41059875488281 0.3065338134765625 C 48.41234588623047 0.3065185546875 48.41397094726562 0.3065032958984375 48.41571807861328 0.306488037109375 L 48.41584014892578 0.306488037109375 C 48.41764831542969 0.30645751953125 48.41934967041016 0.3064422607421875 48.42115783691406 0.306427001953125 L 48.42173767089844 0.3064117431640625 C 48.42656707763672 0.306365966796875 48.43145751953125 0.306304931640625 48.43629455566406 0.3062591552734375 L 48.44675445556641 0.3061370849609375 C 48.46139526367188 0.3059844970703125 48.47611999511719 0.305816650390625 48.49082946777344 0.3056640625 L 48.49169921875 0.3056488037109375 C 49.02073669433594 0.299835205078125 49.58489227294922 0.2936248779296875 49.58489227294922 0.2936248779296875 Z M 54.58458709716797 0.238616943359375 L 54.60659027099609 2.238494873046875 L 52.60671234130859 2.260498046875 L 52.584716796875 0.2606201171875 C 52.584716796875 0.2606201171875 54.58458709716797 0.238616943359375 54.58458709716797 0.238616943359375 Z M 59.58428955078125 0.18359375 L 59.60629272460938 2.183502197265625 L 57.60641479492188 2.205490112304688 L 57.58438873291016 0.20562744140625 C 57.58438873291016 0.20562744140625 58.08281707763672 0.20013427734375 58.58199310302734 0.19464111328125 L 59.58428955078125 0.1836090087890625 Z M 64.58396911621094 0.12860107421875 L 64.60598754882812 2.12847900390625 L 62.60609436035156 2.150466918945312 L 62.58409118652344 0.1505889892578125 L 64.58396911621094 0.12860107421875 Z M 69.58366394042969 0.0735931396484375 L 69.60566711425781 2.073471069335938 L 67.60578918457031 2.095474243164062 L 67.58379364013672 0.0955963134765625 L 68.68553161621094 0.0834808349609375 C 68.68589019775391 0.083465576171875 68.68630218505859 0.083465576171875 68.68666839599609 0.083465576171875 L 68.69168853759766 0.083404541015625 C 68.69187164306641 0.083404541015625 68.69220733642578 0.083404541015625 68.6923828125 0.083404541015625 L 68.69637298583984 0.0833587646484375 C 68.69716644287109 0.083343505859375 68.69780731201172 0.083343505859375 68.69860076904297 0.0833282470703125 L 68.70494079589844 0.0832672119140625 C 68.70693969726562 0.0832366943359375 68.70893096923828 0.083221435546875 68.71092987060547 0.08319091796875 L 68.71944427490234 0.083099365234375 C 68.72010803222656 0.083099365234375 68.72064208984375 0.0830841064453125 68.72130584716797 0.0830841064453125 L 68.72621154785156 0.0830230712890625 C 68.72904968261719 0.0829925537109375 68.73195648193359 0.0829620361328125 68.73479461669922 0.0829315185546875 L 68.73593902587891 0.082916259765625 C 68.73757171630859 0.0829010009765625 68.73924255371094 0.0828857421875 68.74086761474609 0.0828704833984375 L 68.74948120117188 0.0827789306640625 C 68.74996185302734 0.082763671875 68.75050354003906 0.082763671875 68.75099182128906 0.082763671875 L 68.79443359375 0.082275390625 C 68.80119323730469 0.0821990966796875 68.80805206298828 0.082122802734375 68.81478118896484 0.082061767578125 L 68.81928253173828 0.082000732421875 C 68.82939910888672 0.0818939208984375 68.83950042724609 0.081787109375 68.84954071044922 0.0816650390625 L 68.85129547119141 0.0816497802734375 C 68.85448455810547 0.0816192626953125 68.85759735107422 0.0815887451171875 68.86077880859375 0.08154296875 L 68.86332702636719 0.0815277099609375 C 68.86656188964844 0.08148193359375 68.86967468261719 0.081451416015625 68.87290191650391 0.0814208984375 L 68.87296295166016 0.0814208984375 C 68.87654113769531 0.0813751220703125 68.88013458251953 0.081329345703125 68.88370513916016 0.081298828125 L 68.88478088378906 0.0812835693359375 C 68.89133453369141 0.081207275390625 68.89779663085938 0.081146240234375 68.90431213378906 0.0810699462890625 L 68.90725708007812 0.0810394287109375 C 68.92172241210938 0.08087158203125 68.93619537353516 0.080718994140625 68.95044708251953 0.08056640625 L 68.95137786865234 0.0805511474609375 C 69.30267333984375 0.076690673828125 69.58366394042969 0.0735931396484375 69.58366394042969 0.0735931396484375 Z M 74.58336639404297 0.0186004638671875 L 74.60536193847656 2.018478393554688 L 72.60549163818359 2.04046630859375 L 72.58349609375 0.0406036376953125 C 72.58349609375 0.0406036376953125 74.58336639404297 0.0186004638671875 74.58336639404297 0.0186004638671875 Z M 79.58306884765625 -0.0364227294921875 L 79.60506439208984 1.963470458984375 L 77.60519409179688 1.9854736328125 L 77.58319091796875 -0.014404296875 C 77.58319091796875 -0.014404296875 78.05259704589844 -0.0195770263671875 78.53659057617188 -0.02490234375 L 79.58306884765625 -0.0364227294921875 Z M 84.582763671875 -0.0914306640625 L 84.60476684570312 1.908447265625 L 82.60488891601562 1.930450439453125 L 82.5828857421875 -0.069427490234375 L 84.582763671875 -0.0914154052734375 Z M 89.58246612548828 -0.14642333984375 L 89.60446166992188 1.853439331054688 L 87.60459136962891 1.875442504882812 L 87.58259582519531 -0.1244354248046875 L 88.84051513671875 -0.1382598876953125 C 88.84063720703125 -0.1382598876953125 88.84074401855469 -0.138275146484375 88.84086608886719 -0.138275146484375 L 88.96307373046875 -0.139617919921875 C 88.96335601806641 -0.139617919921875 88.96353912353516 -0.139617919921875 88.96382141113281 -0.139617919921875 L 88.96865844726562 -0.139678955078125 C 88.96877288818359 -0.139678955078125 88.96884155273438 -0.139678955078125 88.96895599365234 -0.139678955078125 L 88.98463439941406 -0.1398468017578125 C 88.98513793945312 -0.139862060546875 88.985595703125 -0.139862060546875 88.98610687255859 -0.139862060546875 L 88.98922729492188 -0.1399078369140625 C 88.99002075195312 -0.1399078369140625 88.99079895019531 -0.139923095703125 88.99159240722656 -0.139923095703125 L 89.00445556640625 -0.14007568359375 C 89.00759124755859 -0.140106201171875 89.01084899902344 -0.14013671875 89.01396179199219 -0.140167236328125 L 89.01662445068359 -0.14019775390625 C 89.02252197265625 -0.1402740478515625 89.02827453613281 -0.1403350830078125 89.03411865234375 -0.1403961181640625 L 89.03832244873047 -0.14044189453125 C 89.04459381103516 -0.1405181884765625 89.05075073242188 -0.1405792236328125 89.05695343017578 -0.1406402587890625 L 89.05714416503906 -0.140655517578125 C 89.06367492675781 -0.140716552734375 89.07017517089844 -0.1407928466796875 89.07662963867188 -0.140869140625 L 89.07894134521484 -0.1408843994140625 C 89.09185028076172 -0.1410369873046875 89.10462951660156 -0.14117431640625 89.11723327636719 -0.1413116455078125 L 89.11976623535156 -0.1413421630859375 C 89.38774108886719 -0.144287109375 89.58246612548828 -0.14642333984375 89.58246612548828 -0.14642333984375 Z M 94.58216857910156 -0.2014312744140625 L 94.60416412353516 1.798446655273438 L 92.60429382324219 1.820449829101562 L 92.58229064941406 -0.1794281005859375 C 92.58229064941406 -0.1794281005859375 94.58216857910156 -0.2014312744140625 94.58216857910156 -0.2014312744140625 Z M 99.58186340332031 -0.2564544677734375 L 99.60386657714844 1.743453979492188 L 97.60398864746094 1.76544189453125 L 97.58198547363281 -0.23443603515625 C 97.58198547363281 -0.23443603515625 98.04068756103516 -0.2394866943359375 98.51875305175781 -0.2447509765625 L 99.58186340332031 -0.256439208984375 Z M 104.5815658569336 -0.3114471435546875 L 104.6035614013672 1.68841552734375 L 102.6036911010742 1.710418701171875 L 102.5816650390625 -0.289459228515625 L 104.5815658569336 -0.3114471435546875 Z M 109.5812683105469 -0.366455078125 L 109.6032638549805 1.6334228515625 L 107.6033630371094 1.655426025390625 L 107.5813674926758 -0.344451904296875 L 109.1545104980469 -0.36175537109375 C 109.1545562744141 -0.36175537109375 109.154670715332 -0.36175537109375 109.1547241210938 -0.36175537109375 L 109.1594085693359 -0.36181640625 C 109.1595611572266 -0.36181640625 109.1597595214844 -0.36181640625 109.159912109375 -0.36181640625 L 109.1640930175781 -0.3618621826171875 C 109.1642990112305 -0.3618621826171875 109.1646041870117 -0.3618621826171875 109.1648101806641 -0.36187744140625 L 109.1691055297852 -0.3619232177734375 C 109.1694107055664 -0.3619232177734375 109.1697082519531 -0.3619232177734375 109.1700134277344 -0.3619232177734375 L 109.1871109008789 -0.36212158203125 C 109.1881103515625 -0.36212158203125 109.1890487670898 -0.3621368408203125 109.1900405883789 -0.362152099609375 L 109.1930389404297 -0.3621826171875 C 109.1931838989258 -0.3621826171875 109.193244934082 -0.3621826171875 109.1933898925781 -0.3621826171875 L 109.1972732543945 -0.3622283935546875 C 109.1981658935547 -0.36224365234375 109.1991195678711 -0.36224365234375 109.2000045776367 -0.3622589111328125 L 109.2006530761719 -0.3622589111328125 C 109.2052230834961 -0.3623199462890625 109.2098159790039 -0.36236572265625 109.2143249511719 -0.3624114990234375 L 109.2146301269531 -0.3624267578125 C 109.2205047607422 -0.36248779296875 109.2263259887695 -0.362548828125 109.2320938110352 -0.36260986328125 L 109.2337112426758 -0.3626251220703125 C 109.2361831665039 -0.3626556396484375 109.23876953125 -0.3626861572265625 109.2412261962891 -0.3627166748046875 L 109.2427139282227 -0.36273193359375 C 109.2450714111328 -0.362762451171875 109.2474365234375 -0.3627777099609375 109.2497711181641 -0.3628082275390625 L 109.2530288696289 -0.3628387451171875 C 109.2534027099609 -0.36285400390625 109.2537994384766 -0.36285400390625 109.2541656494141 -0.36285400390625 L 109.2559204101562 -0.3628692626953125 C 109.2568969726562 -0.362884521484375 109.2579193115234 -0.3628997802734375 109.2588958740234 -0.3628997802734375 L 109.2621307373047 -0.362945556640625 C 109.2621307373047 -0.362945556640625 109.2621917724609 -0.362945556640625 109.2621917724609 -0.362945556640625 L 109.2749328613281 -0.3630828857421875 C 109.2752532958984 -0.3630828857421875 109.2755279541016 -0.3630828857421875 109.2758483886719 -0.36309814453125 L 109.2782897949219 -0.3631134033203125 C 109.2808685302734 -0.3631439208984375 109.2834701538086 -0.3631744384765625 109.2860260009766 -0.3632049560546875 L 109.2862777709961 -0.3632049560546875 C 109.291877746582 -0.3632659912109375 109.2974166870117 -0.3633270263671875 109.3028945922852 -0.3633880615234375 L 109.3035202026367 -0.3634033203125 C 109.3061065673828 -0.363433837890625 109.3087387084961 -0.3634490966796875 109.3112945556641 -0.3634796142578125 L 109.311767578125 -0.363494873046875 C 109.3143615722656 -0.3635101318359375 109.3170471191406 -0.3635406494140625 109.3196105957031 -0.3635711669921875 L 109.3200454711914 -0.36358642578125 C 109.325309753418 -0.3636322021484375 109.3305892944336 -0.3636932373046875 109.3357238769531 -0.3637542724609375 L 109.3363189697266 -0.3637542724609375 C 109.4857025146484 -0.3654022216796875 109.5812683105469 -0.366455078125 109.5812683105469 -0.366455078125 Z M 114.580940246582 -0.42144775390625 L 114.6029663085938 1.578414916992188 L 112.6030654907227 1.600418090820312 L 112.5810699462891 -0.3994598388671875 C 112.5810699462891 -0.3994598388671875 114.580940246582 -0.42144775390625 114.580940246582 -0.42144775390625 Z M 119.5806427001953 -0.4764556884765625 L 119.6026382446289 1.523422241210938 L 117.6027679443359 1.545425415039062 L 117.5807647705078 -0.4544525146484375 C 117.5807647705078 -0.4544525146484375 119.5806427001953 -0.4764556884765625 119.5806427001953 -0.4764556884765625 Z M 124.5803375244141 -0.5314788818359375 L 124.6023406982422 1.468399047851562 L 122.6024627685547 1.49041748046875 L 122.5804672241211 -0.5094757080078125 L 124.5803375244141 -0.5314788818359375 Z M 129.5800476074219 -0.5864715576171875 L 129.6020355224609 1.41339111328125 L 127.602165222168 1.435394287109375 L 127.5801696777344 -0.564483642578125 L 129.4652709960938 -0.5852203369140625 C 129.46533203125 -0.5852203369140625 129.4653472900391 -0.5852203369140625 129.4654083251953 -0.5852203369140625 L 129.5275115966797 -0.585906982421875 C 129.5275726318359 -0.585906982421875 129.5276184082031 -0.585906982421875 129.5276794433594 -0.585906982421875 L 129.5335083007812 -0.585968017578125 C 129.5335540771484 -0.585968017578125 129.5335388183594 -0.585968017578125 129.5335845947266 -0.585968017578125 L 129.5391845703125 -0.586029052734375 C 129.5399627685547 -0.5860443115234375 129.5407257080078 -0.5860443115234375 129.5414733886719 -0.5860595703125 L 129.5475769042969 -0.58612060546875 C 129.5477294921875 -0.58612060546875 129.5478515625 -0.58612060546875 129.5480041503906 -0.58612060546875 L 129.5523376464844 -0.5861663818359375 C 129.5524749755859 -0.586181640625 129.5526275634766 -0.586181640625 129.5527648925781 -0.586181640625 L 129.5537414550781 -0.586181640625 C 129.5539245605469 -0.5861968994140625 129.5541076660156 -0.5861968994140625 129.5542907714844 -0.5861968994140625 L 129.5553283691406 -0.586212158203125 C 129.5554504394531 -0.586212158203125 129.5555877685547 -0.586212158203125 129.5557098388672 -0.586212158203125 L 129.5620880126953 -0.586273193359375 C 129.5621185302734 -0.5862884521484375 129.5621490478516 -0.5862884521484375 129.5621795654297 -0.5862884521484375 L 129.5631408691406 -0.5862884521484375 C 129.5632934570312 -0.5862884521484375 129.5634307861328 -0.5862884521484375 129.5635833740234 -0.5863037109375 L 129.5643310546875 -0.5863037109375 C 129.5644989013672 -0.5863037109375 129.564697265625 -0.5863037109375 129.5648651123047 -0.5863037109375 L 129.5652618408203 -0.5863189697265625 C 129.5655212402344 -0.5863189697265625 129.5657653808594 -0.5863189697265625 129.5660247802734 -0.5863189697265625 L 129.5664825439453 -0.586334228515625 C 129.5666046142578 -0.586334228515625 129.5667419433594 -0.586334228515625 129.5668792724609 -0.586334228515625 L 129.5676727294922 -0.5863494873046875 C 129.5685424804688 -0.5863494873046875 129.5693511962891 -0.58636474609375 129.5701293945312 -0.58636474609375 L 129.5706634521484 -0.5863800048828125 C 129.5706787109375 -0.5863800048828125 129.5706787109375 -0.5863800048828125 129.5706787109375 -0.5863800048828125 L 129.5715026855469 -0.5863800048828125 C 129.5715942382812 -0.5863800048828125 129.5717010498047 -0.5863800048828125 129.57177734375 -0.5863800048828125 L 129.5720062255859 -0.586395263671875 C 129.5722808837891 -0.586395263671875 129.572509765625 -0.586395263671875 129.5727691650391 -0.586395263671875 L 129.5728454589844 -0.586395263671875 C 129.5731048583984 -0.586395263671875 129.5733489990234 -0.5864105224609375 129.5735931396484 -0.5864105224609375 L 129.5757293701172 -0.58642578125 C 129.5758666992188 -0.58642578125 129.5759887695312 -0.5864410400390625 129.5761108398438 -0.5864410400390625 L 129.5764312744141 -0.5864410400390625 C 129.5764923095703 -0.5864410400390625 129.5765533447266 -0.5864410400390625 129.5765991210938 -0.5864410400390625 L 129.5800476074219 -0.5864715576171875 Z M 134.5797424316406 -0.6414794921875 L 134.6017456054688 1.3583984375 L 132.6018676757812 1.380401611328125 L 132.5798645019531 -0.619476318359375 C 132.5798645019531 -0.619476318359375 134.5797424316406 -0.6414794921875 134.5797424316406 -0.6414794921875 Z"/>
        </g>
        <text id="B" class="cls-13" transform="translate(1762.007 2119.921)"><tspan x="0" y="0">B</tspan></text>
        <path id="Union_1" data-name="Union 1" class="cls-14" d="M2775.007,1085.921v-6h-7v-3h7v-7h3v7h6v3h-6v6Z" transform="translate(-1038 903)"/>
        <path id="Union_2" data-name="Union 2" class="cls-14" d="M2775.007,1085.921v-6h-7v-3h7v-7h3v7h6v3h-6v6Z" transform="translate(-903 902)"/>
        <path id="Union_3" data-name="Union 3" class="cls-14" d="M2775.007,1085.921v-6h-7v-3h7v-7h3v7h6v3h-6v6Z" transform="translate(-902 1082)"/>
        <path id="Union_4" data-name="Union 4" class="cls-14" d="M2775.007,1085.921v-6h-7v-3h7v-7h3v7h6v3h-6v6Z" transform="translate(-1039 1082)"/>
      </g>
      <g id="Image" transform="translate(-965.311 -771)">
        <rect id="Rectangle_30" data-name="Rectangle 30" class="cls-8" width="212" height="124" transform="translate(1049 834)"/>
        <rect id="Rectangle_24" data-name="Rectangle 24" class="cls-9" width="207" height="119" transform="translate(1054 838)"/>
        <path id="Path_103" data-name="Path 103" class="cls-15" d="M63.544,0l63.544,60.5-127,.057Z" transform="translate(1051.912 897.5)"/>
        <path id="Path_102" data-name="Path 102" class="cls-15" d="M75.393-.424,136,86H0Z" transform="translate(1123 871)"/>
        <path id="Path_98" data-name="Path 98" class="cls-16" d="M63,0l63,59H0Z" transform="translate(1054 899)"/>
        <path id="Path_99" data-name="Path 99" class="cls-16" d="M75.393-.424,136,86H0Z" transform="translate(1125 872)"/>
        <circle id="Ellipse_84" data-name="Ellipse 84" class="cls-17" cx="13" cy="13" r="13" transform="translate(1085 854)"/>
        <circle id="Ellipse_82" data-name="Ellipse 82" class="cls-18" cx="13" cy="13" r="13" transform="translate(1083 854)"/>
      </g>
      <g id="Swatches" transform="translate(-965.311 -774)">
        <rect id="Rectangle_31" data-name="Rectangle 31" class="cls-8" width="264" height="65" transform="translate(1022 1098)"/>
        <path id="Subtraction_3" data-name="Subtraction 3" class="cls-3" d="M2594,62H2333V0h261V62ZM2348,22a9,9,0,1,0,9,9A9.01,9.01,0,0,0,2348,22Z" transform="translate(-1311 1098)"/>
        <rect id="Rectangle_26" data-name="Rectangle 26" class="cls-9" width="49" height="42" transform="translate(1052 1108)"/>
        <rect id="Rectangle_27" data-name="Rectangle 27" class="cls-16" width="49" height="42" transform="translate(1166 1108)"/>
        <rect id="Rectangle_29" data-name="Rectangle 29" class="cls-18" width="49" height="42" transform="translate(1223 1108)"/>
        <rect id="Rectangle_28" data-name="Rectangle 28" class="cls-10" width="49" height="42" transform="translate(1109 1108)"/>
      </g>
      <g id="Circle" transform="translate(-965.311 -774)">
        <g id="Ellipse_85" data-name="Ellipse 85" class="cls-19" transform="translate(1029 1006)">
          <circle class="cls-23" cx="18" cy="18" r="18"/>
          <circle class="cls-24" cx="18" cy="18" r="17"/>
        </g>
        <g id="Ellipse_83" data-name="Ellipse 83" class="cls-20" transform="translate(1028 1006)">
          <circle class="cls-23" cx="17.5" cy="17.5" r="17.5"/>
          <circle class="cls-24" cx="17.5" cy="17.5" r="16.5"/>
        </g>
      </g>
      <g id="Curve_line" data-name="Curve line" transform="translate(-965.311 -774)">
        <path id="Path_101" data-name="Path 101" class="cls-21" d="M-1332.689,833.051c17.649,15.947,44.5,9.97,70.072-22.118s52.415-33.721,65.371-33.263" transform="translate(2299 13)"/>
        <path id="Path_100" data-name="Path 100" class="cls-22" d="M-1332.689,833.051c17.649,15.947,44.5,9.97,70.072-22.118s52.415-33.721,65.371-33.263" transform="translate(2298 12)"/>
      </g>
      <g id="Diamond" transform="translate(-965.311 -774)">
        <g id="Path_106" data-name="Path 106" class="cls-11" transform="matrix(0.966, 0.259, -0.259, 0.966, 1335.056, 791.638)">
          <path class="cls-23" d="M11,0,22,15,11,28.443,0,15Z"/>
          <path class="cls-27" d="M 11 1.690994262695312 L 1.264667510986328 14.96644592285156 L 11 26.86396026611328 L 20.73533248901367 14.96644592285156 L 11 1.690994262695312 M 11 -3.814697265625e-06 L 22 14.99999713897705 L 11 28.44305801391602 L 0 14.99999713897705 L 11 -3.814697265625e-06 Z"/>
        </g>
        <g id="Path_105" data-name="Path 105" class="cls-11" transform="matrix(0.966, 0.259, -0.259, 0.966, 1334.056, 791.638)">
          <path class="cls-23" d="M11,0,22,15,11,28.443,0,15Z"/>
          <path class="cls-25" d="M 11 3.382013320922852 L 2.529336929321289 14.93291854858398 L 11 25.28488540649414 L 19.47066307067871 14.93291854858398 L 11 3.382013320922852 M 11 -3.814697265625e-06 L 22 14.99999713897705 L 11 28.44305801391602 L 0 14.99999713897705 L 11 -3.814697265625e-06 Z"/>
        </g>
      </g>
    </g>
  </g>
</svg>
