<svg xmlns="http://www.w3.org/2000/svg" width="987.957" height="531.68" viewBox="0 0 987.957 531.68">
  <defs>
    <style>
      .cls-1 {
        fill: #402a2a;
      }

      .cls-11, .cls-12, .cls-13, .cls-15, .cls-17, .cls-2, .cls-23, .cls-5, .cls-6, .cls-7 {
        fill: none;
      }

      .cls-17, .cls-2, .cls-7 {
        stroke: #fff;
      }

      .cls-2 {
        stroke-dasharray: 4;
      }

      .cls-18, .cls-21, .cls-3 {
        fill: #fff;
      }

      .cls-16, .cls-4 {
        font-size: 30px;
      }

      .cls-4 {
        font-family: Poppins-Medium, Poppins;
        font-weight: 500;
      }

      .cls-5, .cls-6 {
        stroke: #331a1a;
      }

      .cls-5 {
        stroke-width: 5px;
      }

      .cls-13, .cls-6 {
        stroke-width: 4px;
      }

      .cls-7 {
        stroke-width: 3px;
      }

      .cls-8 {
        fill: #fccbcb;
      }

      .cls-9 {
        fill: #831d1d;
      }

      .cls-10 {
        fill: #be4545;
      }

      .cls-11 {
        stroke: #831d1d;
      }

      .cls-11, .cls-12 {
        stroke-width: 1.5px;
      }

      .cls-12, .cls-13 {
        stroke: #fccbcb;
      }

      .cls-14, .cls-16 {
        fill: #f5804c;
      }

      .cls-15 {
        stroke: #f5804c;
      }

      .cls-16, .cls-18 {
        font-family: Poppins-Light, Poppins;
        font-weight: 300;
      }

      .cls-18 {
        font-size: 15px;
      }

      .cls-19 {
        opacity: 0.303;
      }

      .cls-20 {
        opacity: 0.243;
      }

      .cls-21 {
        opacity: 0.265;
      }

      .cls-22 {
        stroke: none;
      }
    </style>
  </defs>
  <g id="Marketing" transform="translate(-633 -2072)">
    <rect id="Rectangle_5" data-name="Rectangle 5" class="cls-1" width="743" height="524" transform="translate(680 2072)"/>
    <g id="Number3" transform="translate(633 2109)">
      <g id="Ellipse_64" data-name="Ellipse 64" class="cls-2">
        <circle class="cls-22" cx="36.5" cy="36.5" r="36.5"/>
        <circle class="cls-23" cx="36.5" cy="36.5" r="36"/>
      </g>
      <circle id="Ellipse_67" data-name="Ellipse 67" class="cls-3" cx="31" cy="31" r="31" transform="translate(13 6)"/>
      <text id="_3" data-name="3" class="cls-4" transform="translate(36 48)"><tspan x="0" y="0">3</tspan></text>
    </g>
    <g id="illustration">
      <g id="Frame" transform="translate(51.709 1328)">
        <line id="Line_6" data-name="Line 6" class="cls-5" y2="458" transform="translate(1414 777)"/>
        <line id="Line_3" data-name="Line 3" class="cls-5" x2="415" transform="translate(999.5 1233.5)"/>
        <line id="Line_4" data-name="Line 4" class="cls-6" y2="454.5" transform="translate(1002 777)"/>
        <line id="Line_5" data-name="Line 5" class="cls-6" x1="418" y2="2" transform="translate(1000.5 777.5)"/>
        <g id="Box" class="cls-7" transform="translate(997 774)">
          <rect class="cls-22" width="421" height="464"/>
          <rect class="cls-23" x="1.5" y="1.5" width="418" height="461"/>
        </g>
      </g>
      <g id="Loud_speaker" data-name="Loud speaker">
        <path id="Union_8" data-name="Union 8" class="cls-8" d="M18.793,164.615l-13.412-17L87,83.857,74.37,74.28,90.784,33.043l69.524,11.644L126.625,113.9l-12.695-9.626L47.988,168.2a20.8,20.8,0,0,1-29.2-3.585Z" transform="translate(1401.712 2392.435)"/>
        <path id="Path_112" data-name="Path 112" class="cls-8" d="M31.11,1.164s25.669,16.2,46.553,27.249,15.4,9.11,36.985,16.966,30.021,8.532,49.76,11.726,29.393.784,29.393.784,2.905-.128,21.029-3.721,48.757-.363,48.757-.363l6.853,64.622s-20.548,8.059-49.332,10.4-60.236,6.82-60.236,6.82-14.334.67-43.822,17.553S41.22,206.861,41.22,206.861,9.916,228.237,1.266,104.816,31.11,1.164,31.11,1.164Z" transform="matrix(0.883, 0.469, -0.469, 0.883, 1341.568, 2218)"/>
        <path id="Path_113" data-name="Path 113" class="cls-9" d="M14.418,0c13.889,0,31.8,57.636,31.8,91.423S43.577,190.4,27.842,193.152,3.445,129.474.917,90,.529,0,14.418,0Z" transform="matrix(0.883, 0.469, -0.469, 0.883, 1345.456, 2225.552)"/>
        <path id="Path_119" data-name="Path 119" class="cls-10" d="M.146-.6l32.4,3.187,6.813,37.949-36.625,6Z" transform="matrix(0.875, 0.485, -0.485, 0.875, 1586.244, 2420.787)"/>
        <path id="Path_120" data-name="Path 120" class="cls-9" d="M.68,11.722l43.787,8.655L44.05,62.345,11.093,64.79Z" transform="matrix(0.914, 0.407, -0.407, 0.914, 1571.42, 2395.359)"/>
        <path id="Rectangle_67" data-name="Rectangle 67" class="cls-10" d="M0,0H75.821a34,34,0,0,1,34,34V56.436a34,34,0,0,1-34,34H0a0,0,0,0,1,0,0V0A0,0,0,0,1,0,0Z" transform="matrix(0.914, 0.407, -0.407, 0.914, 1509.74, 2360.22)"/>
        <path id="Intersection_1" data-name="Intersection 1" class="cls-8" d="M2398.271-910.638c-14.667-11.525-16.587-25.321-7.751-40.626s19.388-22.3,39.75-14.8a25.2,25.2,0,0,1,4.594,2.178,164.144,164.144,0,0,1-11.259,28.305c-4.411,8.3-10.14,18.637-16.443,29.141C2404.728-906.545,2401.85-907.825,2398.271-910.638Z" transform="translate(-1084.263 3263.552)"/>
        <path id="Path_116" data-name="Path 116" class="cls-11" d="M1368.889,2249.534s-4.219,94.865-73.8,159.393" transform="translate(4)"/>
        <line id="Line_9" data-name="Line 9" class="cls-12" x2="45" y2="20" transform="translate(1520.5 2408.5)"/>
        <line id="Line_10" data-name="Line 10" class="cls-12" x2="45" y2="20" transform="translate(1520.5 2420.5)"/>
        <line id="Line_11" data-name="Line 11" class="cls-12" x2="45" y2="20" transform="translate(1520.5 2430.5)"/>
      </g>
      <g id="Graph">
        <path id="Path_121" data-name="Path 121" class="cls-13" d="M1085.064,2391.522l60.106-42.1v27.31l114.971-86.836" transform="translate(-82 107)"/>
        <rect id="Rectangle_71" data-name="Rectangle 71" class="cls-8" width="16" height="40" transform="translate(1016 2539)"/>
        <rect id="Rectangle_72" data-name="Rectangle 72" class="cls-8" width="16" height="76" transform="translate(1040 2503)"/>
        <rect id="Rectangle_73" data-name="Rectangle 73" class="cls-8" width="16" height="67" transform="translate(1064 2512)"/>
        <rect id="Rectangle_74" data-name="Rectangle 74" class="cls-8" width="16" height="80" transform="translate(1088 2499)"/>
        <rect id="Rectangle_75" data-name="Rectangle 75" class="cls-8" width="16" height="98" transform="translate(1112 2481)"/>
        <rect id="Rectangle_76" data-name="Rectangle 76" class="cls-8" width="16" height="119" transform="translate(1136 2460)"/>
        <rect id="Rectangle_77" data-name="Rectangle 77" class="cls-8" width="16" height="140" transform="translate(1160 2439)"/>
        <path id="Polygon_3" data-name="Polygon 3" class="cls-8" d="M17,0,34,30H0Z" transform="translate(1186.772 2368.33) rotate(48)"/>
      </g>
      <g id="camera" transform="translate(63 -1031)">
        <rect id="Rectangle_79" data-name="Rectangle 79" class="cls-9" width="14" height="12" transform="translate(1041 3161)"/>
        <rect id="Rectangle_80" data-name="Rectangle 80" class="cls-8" width="14" height="12" transform="translate(1041 3164)"/>
        <rect id="Rectangle_78" data-name="Rectangle 78" class="cls-10" width="105" height="73" rx="17" transform="translate(1027 3168)"/>
        <circle id="Ellipse_121" data-name="Ellipse 121" class="cls-8" cx="16.5" cy="16.5" r="16.5" transform="translate(1065 3189)"/>
        <circle id="Ellipse_122" data-name="Ellipse 122" class="cls-9" cx="5" cy="5" r="5" transform="translate(1112 3179)"/>
      </g>
    </g>
    <g id="Money" transform="translate(-1199.537 401.129) rotate(-30)">
      <path id="Subtraction_5" data-name="Subtraction 5" class="cls-9" d="M47.875,0A47.875,47.875,0,1,1,0,47.875,47.875,47.875,0,0,1,47.875,0Z" transform="translate(1381 2813)"/>
      <path id="Subtraction_6" data-name="Subtraction 6" class="cls-14" d="M44.062,88.124A44.074,44.074,0,0,1,26.911,3.463a44.074,44.074,0,0,1,34.3,81.2A43.787,43.787,0,0,1,44.062,88.124ZM34.175,48.488a6.76,6.76,0,0,0,2.242,4.769,9.066,9.066,0,0,0,5.472,2.223v3.078h1.672v-3.04a8.87,8.87,0,0,0,4.256-1.178,7.018,7.018,0,0,0,3.5-6.079,6.491,6.491,0,0,0-1.064-3.914A6.584,6.584,0,0,0,47.607,42.2a26.993,26.993,0,0,0-4.046-1.349V30.7a5.281,5.281,0,0,1,3.1,1.52,4.957,4.957,0,0,1,1.387,2.622h2.812a7,7,0,0,0-2.242-4.37,8.455,8.455,0,0,0-5.054-2.052v-3.23H41.889v3.191a8.546,8.546,0,0,0-5.662,2.11,6.527,6.527,0,0,0-2.09,4.959A6.264,6.264,0,0,0,35.2,39.273a6.542,6.542,0,0,0,2.6,2.109,28.72,28.72,0,0,0,4.085,1.368V53.276a5.467,5.467,0,0,1-3.477-1.691,5.293,5.293,0,0,1-1.387-3.1Zm9.386,4.864h0V43.244a10.888,10.888,0,0,1,3.781,1.862,4.047,4.047,0,0,1,1.311,3.268,4.8,4.8,0,0,1-1.33,3.439,5.485,5.485,0,0,1-3.761,1.539Zm-1.672-13h0a10.662,10.662,0,0,1-3.742-1.8,3.941,3.941,0,0,1-1.311-3.211,4.325,4.325,0,0,1,1.388-3.42,5.85,5.85,0,0,1,3.667-1.33v9.765Z" transform="translate(1385.237 2817.237)"/>
    </g>
    <g id="Money-2" data-name="Money" transform="translate(-1619.537 559.129) rotate(-30)">
      <path id="Subtraction_5-2" data-name="Subtraction 5" class="cls-9" d="M47.875,0A47.875,47.875,0,1,1,0,47.875,47.875,47.875,0,0,1,47.875,0Z" transform="translate(1381 2813)"/>
      <path id="Subtraction_6-2" data-name="Subtraction 6" class="cls-14" d="M44.062,88.124A44.074,44.074,0,0,1,26.911,3.463a44.074,44.074,0,0,1,34.3,81.2A43.787,43.787,0,0,1,44.062,88.124ZM33.016,35.378v1.976h12.73a5.521,5.521,0,0,1-1.2,3.268,5.356,5.356,0,0,1-3.117,1.368,46.216,46.216,0,0,1-6.593.342V47.8a8.236,8.236,0,0,0,1.9,5.757,7.235,7.235,0,0,0,5.586,2.071,7.341,7.341,0,0,0,5.433-1.919A7.85,7.85,0,0,0,49.7,48.071H47.228A6,6,0,0,1,46.012,52.1,4.581,4.581,0,0,1,42.364,53.5,4.769,4.769,0,0,1,38.6,52.079,6.338,6.338,0,0,1,37.347,47.8V44.232h.019a23.467,23.467,0,0,0,6.061-.626,6.187,6.187,0,0,0,3.363-2.09,8.344,8.344,0,0,0,1.425-4.161h5.472V35.378h-5.32V30.667h5.32V28.652H33.016v2.014H45.86v4.711Z" transform="translate(1385.237 2817.237)"/>
    </g>
    <g id="Money-3" data-name="Money" transform="translate(-1339.116 801.839) rotate(-30)">
      <path id="Subtraction_5-3" data-name="Subtraction 5" class="cls-9" d="M32.454,0A32.454,32.454,0,1,1,0,32.454,32.454,32.454,0,0,1,32.454,0Z" transform="translate(1381 2813)"/>
      <path id="Subtraction_6-3" data-name="Subtraction 6" class="cls-14" d="M29.444,59.9A29.877,29.877,0,0,1,17.818,2.506,29.877,29.877,0,0,1,41.071,57.55,29.682,29.682,0,0,1,29.444,59.9ZM21.156,24.484v1.56h10.05a4.363,4.363,0,0,1-.945,2.58A4.231,4.231,0,0,1,27.8,29.7a36.454,36.454,0,0,1-5.2.27v4.32a6.5,6.5,0,0,0,1.5,4.545,5.712,5.712,0,0,0,4.41,1.635A5.793,5.793,0,0,0,32.8,38.958a6.2,6.2,0,0,0,1.53-4.455H32.377a4.743,4.743,0,0,1-.96,3.181,3.617,3.617,0,0,1-2.88,1.11,3.764,3.764,0,0,1-2.97-1.125,5,5,0,0,1-.99-3.375v-2.82H24.6a18.543,18.543,0,0,0,4.781-.494,4.884,4.884,0,0,0,2.655-1.651,6.585,6.585,0,0,0,1.125-3.285h4.32v-1.56h-4.2v-3.72h4.2v-1.59H21.156v1.59H31.3v3.72Z" transform="translate(1383.872 2815.872)"/>
    </g>
    <g id="Money-4" data-name="Money" transform="translate(0 -696)">
      <g id="Ellipse_127" data-name="Ellipse 127" class="cls-15" transform="translate(1138 2953)">
        <circle class="cls-22" cx="21" cy="21" r="21"/>
        <circle class="cls-23" cx="21" cy="21" r="20.5"/>
      </g>
      <text id="_" data-name="₹" class="cls-16" transform="translate(1159 2985)"><tspan x="-9.69" y="0">₹</tspan></text>
    </g>
    <g id="Money-5" data-name="Money" transform="translate(109 -773)">
      <g id="Ellipse_127-2" data-name="Ellipse 127" class="cls-15" transform="translate(1138 2953)">
        <circle class="cls-22" cx="21" cy="21" r="21"/>
        <circle class="cls-23" cx="21" cy="21" r="20.5"/>
      </g>
      <text id="_2" data-name="₹" class="cls-16" transform="translate(1159 2985)"><tspan x="-9.69" y="0">₹</tspan></text>
    </g>
    <g id="Money-6" data-name="Money" transform="translate(206 -495.467)">
      <g id="Ellipse_127-3" data-name="Ellipse 127" class="cls-17" transform="translate(1138 2953.467)">
        <ellipse class="cls-22" cx="11" cy="10.5" rx="11" ry="10.5"/>
        <ellipse class="cls-23" cx="11" cy="10.5" rx="10.5" ry="10"/>
      </g>
      <text id="_3-2" data-name="$" class="cls-18" transform="translate(1149 2969.467)"><tspan x="-4.477" y="0">$</tspan></text>
    </g>
    <g id="Money-7" data-name="Money" transform="translate(64 -525.467)">
      <g id="Ellipse_127-4" data-name="Ellipse 127" class="cls-17" transform="translate(1138 2953.467)">
        <ellipse class="cls-22" cx="11" cy="10.5" rx="11" ry="10.5"/>
        <ellipse class="cls-23" cx="11" cy="10.5" rx="10.5" ry="10"/>
      </g>
      <text id="_4" data-name="₹" class="cls-18" transform="translate(1149 2969.467)"><tspan x="-4.845" y="0">₹</tspan></text>
    </g>
    <g id="Money-8" data-name="Money" transform="translate(151 -717.467)">
      <g id="Ellipse_127-5" data-name="Ellipse 127" class="cls-17" transform="translate(1138 2953.467)">
        <ellipse class="cls-22" cx="11" cy="10.5" rx="11" ry="10.5"/>
        <ellipse class="cls-23" cx="11" cy="10.5" rx="10.5" ry="10"/>
      </g>
      <text id="_5" data-name="$" class="cls-18" transform="translate(1149 2969.467)"><tspan x="-4.477" y="0">$</tspan></text>
    </g>
    <g id="Money-9" data-name="Money" transform="translate(-78 -789.467)">
      <g id="Ellipse_127-6" data-name="Ellipse 127" class="cls-17" transform="translate(1138 2953.467)">
        <ellipse class="cls-22" cx="11" cy="10.5" rx="11" ry="10.5"/>
        <ellipse class="cls-23" cx="11" cy="10.5" rx="10.5" ry="10"/>
      </g>
      <text id="_6" data-name="₹" class="cls-18" transform="translate(1149 2969.467)"><tspan x="-4.845" y="0">₹</tspan></text>
    </g>
    <g id="Money-10" data-name="Money" transform="translate(222 -838.467)">
      <g id="Ellipse_127-7" data-name="Ellipse 127" class="cls-17" transform="translate(1138 2953.467)">
        <ellipse class="cls-22" cx="11" cy="10.5" rx="11" ry="10.5"/>
        <ellipse class="cls-23" cx="11" cy="10.5" rx="10.5" ry="10"/>
      </g>
      <text id="_7" data-name="£" class="cls-18" transform="translate(1149 2969.467)"><tspan x="-4.47" y="0">£</tspan></text>
    </g>
    <g id="Money-11" data-name="Money" transform="translate(296 -695.467)">
      <g id="Ellipse_127-8" data-name="Ellipse 127" class="cls-17" transform="translate(1138 2953.467)">
        <ellipse class="cls-22" cx="11" cy="10.5" rx="11" ry="10.5"/>
        <ellipse class="cls-23" cx="11" cy="10.5" rx="10.5" ry="10"/>
      </g>
      <text id="_8" data-name="₹" class="cls-18" transform="translate(1149 2969.467)"><tspan x="-4.845" y="0">₹</tspan></text>
    </g>
    <g id="facebook_1_" data-name="facebook (1)" transform="translate(1208 2225.284)">
      <circle id="Ellipse_130" data-name="Ellipse 130" class="cls-3" cx="13.064" cy="13.064" r="13.064" transform="translate(0 0)"/>
      <path id="Path_128" data-name="Path 128" d="M45.354,30.27H43.023v8.54H39.492V30.27h-1.68v-3h1.68V25.327a3.312,3.312,0,0,1,3.563-3.564l2.616.011v2.913h-1.9a.719.719,0,0,0-.749.818v1.766h2.639Z" transform="translate(-29.007 -16.695)"/>
    </g>
    <g id="facebook_1_2" data-name="facebook (1)" class="cls-19" transform="translate(1010 2175.284)">
      <circle id="Ellipse_130-2" data-name="Ellipse 130" class="cls-3" cx="13.064" cy="13.064" r="13.064" transform="translate(0 0)"/>
      <path id="Path_128-2" data-name="Path 128" d="M45.354,30.27H43.023v8.54H39.492V30.27h-1.68v-3h1.68V25.327a3.312,3.312,0,0,1,3.563-3.564l2.616.011v2.913h-1.9a.719.719,0,0,0-.749.818v1.766h2.639Z" transform="translate(-29.007 -16.695)"/>
    </g>
    <g id="instagram" transform="translate(1165.551 2327.895)">
      <path id="Path_129" data-name="Path 129" class="cls-3" d="M32.841,9.549a11.868,11.868,0,0,0-.755-3.94A8.32,8.32,0,0,0,27.333.857,11.9,11.9,0,0,0,23.393.1C21.654.019,21.1,0,16.693,0S11.731.019,10,.1A11.872,11.872,0,0,0,6.058.85,7.925,7.925,0,0,0,3.178,2.728,8,8,0,0,0,1.306,5.6a11.9,11.9,0,0,0-.755,3.94c-.083,1.739-.1,2.291-.1,6.7s.019,4.962.1,6.694a11.868,11.868,0,0,0,.755,3.94A8.319,8.319,0,0,0,6.052,31.63a11.9,11.9,0,0,0,3.94.755c1.732.076,2.284.1,6.694.1s4.962-.019,6.694-.1a11.865,11.865,0,0,0,3.94-.755,8.308,8.308,0,0,0,4.753-4.752,11.908,11.908,0,0,0,.755-3.94c.076-1.732.1-2.284.1-6.694S32.917,11.282,32.841,9.549ZM29.916,22.811a8.9,8.9,0,0,1-.558,3.014,5.388,5.388,0,0,1-3.084,3.084,8.934,8.934,0,0,1-3.014.558c-1.713.076-2.227.1-6.561.1s-4.854-.019-6.561-.1a8.9,8.9,0,0,1-3.014-.558A5,5,0,0,1,5.259,27.7a5.05,5.05,0,0,1-1.212-1.865,8.936,8.936,0,0,1-.558-3.014c-.076-1.713-.1-2.227-.1-6.561s.019-4.854.1-6.561a8.9,8.9,0,0,1,.558-3.014A4.937,4.937,0,0,1,5.265,4.816,5.042,5.042,0,0,1,7.131,3.6a8.94,8.94,0,0,1,3.014-.558c1.713-.076,2.227-.1,6.561-.1s4.854.019,6.561.1A8.9,8.9,0,0,1,26.28,3.6a4.994,4.994,0,0,1,1.865,1.212,5.049,5.049,0,0,1,1.212,1.866A8.939,8.939,0,0,1,29.916,9.7c.076,1.713.1,2.227.1,6.561S29.992,21.1,29.916,22.811Zm0,0" transform="translate(0 0)"/>
      <path id="Path_130" data-name="Path 130" class="cls-3" d="M133.293,124.5a8.344,8.344,0,1,0,8.344,8.344A8.346,8.346,0,0,0,133.293,124.5Zm0,13.756a5.412,5.412,0,1,1,5.412-5.412A5.413,5.413,0,0,1,133.293,138.256Zm0,0" transform="translate(-116.6 -116.6)"/>
      <path id="Path_131" data-name="Path 131" class="cls-3" d="M366.345,90.549A1.948,1.948,0,1,1,364.4,88.6,1.948,1.948,0,0,1,366.345,90.549Zm0,0" transform="translate(-339.031 -82.98)"/>
    </g>
    <g id="youtube" transform="translate(1181 2012.742)">
      <path id="Path_132" data-name="Path 132" class="cls-3" d="M33.243,82.3c-.942-1.675-1.964-1.983-4.045-2.1-2.079-.141-7.306-.2-11.835-.2s-9.767.059-11.844.2c-2.077.119-3.1.425-4.051,2.1C.5,83.973,0,86.855,0,91.928v.017C0,97,.5,99.9,1.469,101.556c.95,1.675,1.972,1.979,4.049,2.12,2.079.122,7.308.193,11.846.193s9.756-.072,11.837-.191c2.081-.141,3.1-.445,4.045-2.12.979-1.656,1.473-4.559,1.473-9.611V91.93C34.719,86.855,34.224,83.973,33.243,82.3Z" transform="translate(0)"/>
      <path id="Path_133" data-name="Path 133" d="M192,173.02V160l10.85,6.51Z" transform="translate(-178.98 -74.575)"/>
    </g>
    <g id="youtube-2" data-name="youtube" class="cls-20" transform="translate(1398 2121.742)">
      <path id="Path_132-2" data-name="Path 132" class="cls-3" d="M33.243,82.3c-.942-1.675-1.964-1.983-4.045-2.1-2.079-.141-7.306-.2-11.835-.2s-9.767.059-11.844.2c-2.077.119-3.1.425-4.051,2.1C.5,83.973,0,86.855,0,91.928v.017C0,97,.5,99.9,1.469,101.556c.95,1.675,1.972,1.979,4.049,2.12,2.079.122,7.308.193,11.846.193s9.756-.072,11.837-.191c2.081-.141,3.1-.445,4.045-2.12.979-1.656,1.473-4.559,1.473-9.611V91.93C34.719,86.855,34.224,83.973,33.243,82.3Z" transform="translate(0)"/>
      <path id="Path_133-2" data-name="Path 133" d="M192,173.02V160l10.85,6.51Z" transform="translate(-178.98 -74.575)"/>
    </g>
    <path id="twitter" class="cls-21" d="M35.535,51.418a15.188,15.188,0,0,1-4.2,1.15,7.244,7.244,0,0,0,3.2-4.027,14.559,14.559,0,0,1-4.62,1.763,7.284,7.284,0,0,0-12.6,4.982,7.5,7.5,0,0,0,.169,1.661,20.62,20.62,0,0,1-15.016-7.62,7.287,7.287,0,0,0,2.239,9.737,7.194,7.194,0,0,1-3.291-.9v.08a7.318,7.318,0,0,0,5.837,7.158,7.271,7.271,0,0,1-1.91.24,6.441,6.441,0,0,1-1.379-.124A7.354,7.354,0,0,0,10.776,70.6,14.638,14.638,0,0,1,1.743,73.7,13.645,13.645,0,0,1,0,73.6a20.509,20.509,0,0,0,11.176,3.269c13.406,0,20.735-11.1,20.735-20.73,0-.322-.011-.633-.027-.942A14.533,14.533,0,0,0,35.535,51.418Z" transform="translate(1234 2441.128)"/>
  </g>
</svg>
