<svg xmlns="http://www.w3.org/2000/svg" xmlns:xlink="http://www.w3.org/1999/xlink" width="137.86" height="58.743" viewBox="0 0 137.86 58.743">
  <defs>
    <style>
      .cls-1 {
        fill: #371311;
      }

      .cls-2 {
        fill: url(#linear-gradient);
      }

      .cls-3 {
        fill: none;
        stroke: #5e0e0e;
        stroke-miterlimit: 10;
        stroke-width: 1.5px;
      }

      .cls-4 {
        isolation: isolate;
      }
    </style>
    <linearGradient id="linear-gradient" y1="0.5" x2="1" y2="0.5" gradientUnits="objectBoundingBox">
      <stop offset="0.193" stop-color="#f5804c"/>
      <stop offset="0.593" stop-color="#ed524a"/>
      <stop offset="1" stop-color="#d8121a"/>
    </linearGradient>
  </defs>
  <g id="WizWork_logo" data-name="WizWork logo" transform="translate(-382.819 -180.26)">
    <g id="Group_5" data-name="Group 5" transform="translate(382.819 183.757)">
      <g id="Group_4" data-name="Group 4">
        <g id="Group_2" data-name="Group 2" transform="translate(2.559)">
          <path id="Path_9" data-name="Path 9" class="cls-1" d="M386.962,189.439a6.141,6.141,0,0,1-.143-1.464,2.415,2.415,0,0,1,.553-1.571,1.894,1.894,0,0,1,1.553-.678h5.107q1.714,0,2.178,2.178l5.856,26.068q.107.572.393,1.929,2.857,14,3.036,15.034l.25,1.393c.023.214.131.321.321.321.381,0,.679-.273.893-.821a79.888,79.888,0,0,0,3.143-9.963l2.571-10.392q1.214-5.143,2.214-10.267T417.1,190.8a4.062,4.062,0,0,1,4.392-3.464h3.571q3.321,0,4.429,3.464,2.32,7.75,3.107,10.821l7.713,30.853c.072.381.262.572.572.572q.428,0,.768-.947t.928-2.838q.589-1.893,1.232-4.214l1.25-4.857a130.441,130.441,0,0,0,2.715-13.445q.678-5.16.91-7.2t.34-3.642q.214-2.536.214-4.571t.071-2.822a4.115,4.115,0,0,1,.358-1.393,2.65,2.65,0,0,1,2.642-1.392h3.25q2.606,0,2.964,2.357a8.994,8.994,0,0,1,.143,1.678q0,.929-.072,2.553t-.286,3.732q-1.25,13.82-7.106,31.96-2.821,8.75-4.82,10.855a5.39,5.39,0,0,1-4.143,1.607H439.42q-5.25,0-6.821-6.249l-9.141-36.461a.2.2,0,0,0-.214-.178.158.158,0,0,0-.179.178L421.1,208.4a152.6,152.6,0,0,1-6.678,26q-1.322,3.714-2.178,4.571a6.056,6.056,0,0,1-4.463,1.5h-2.857a5.824,5.824,0,0,1-4.143-1.374,9.188,9.188,0,0,1-2.249-4.554Z" transform="translate(-386.819 -185.726)"/>
        </g>
        <g id="Group_3" data-name="Group 3">
          <path id="Path_10" data-name="Path 10" class="cls-2" d="M382.962,189.439a6.143,6.143,0,0,1-.143-1.464,2.415,2.415,0,0,1,.553-1.571,1.894,1.894,0,0,1,1.553-.678h5.107q1.714,0,2.178,2.178l5.856,26.068q.106.572.393,1.929,2.857,14,3.036,15.034l.25,1.393c.023.214.13.321.321.321.381,0,.679-.273.893-.821a79.893,79.893,0,0,0,3.143-9.963l2.571-10.392q1.214-5.143,2.214-10.267T413.1,190.8a4.062,4.062,0,0,1,4.392-3.464h3.571q3.321,0,4.429,3.464,2.32,7.75,3.107,10.821l7.713,30.853c.072.381.262.572.572.572q.428,0,.768-.947t.928-2.838q.589-1.893,1.232-4.214l1.25-4.857a130.458,130.458,0,0,0,2.715-13.445q.677-5.16.91-7.2t.34-3.642q.214-2.536.214-4.571t.071-2.822a4.115,4.115,0,0,1,.358-1.393,2.65,2.65,0,0,1,2.642-1.392h3.25q2.606,0,2.964,2.357a8.994,8.994,0,0,1,.143,1.678q0,.929-.072,2.553t-.286,3.732q-1.25,13.82-7.106,31.96-2.821,8.75-4.82,10.855a5.39,5.39,0,0,1-4.143,1.607H435.42q-5.25,0-6.821-6.249l-9.141-36.461a.2.2,0,0,0-.214-.178.158.158,0,0,0-.179.178L417.1,208.4a152.6,152.6,0,0,1-6.677,26q-1.322,3.714-2.179,4.571a6.056,6.056,0,0,1-4.463,1.5h-2.857a5.824,5.824,0,0,1-4.143-1.374,9.188,9.188,0,0,1-2.249-4.554Z" transform="translate(-382.819 -185.726)"/>
        </g>
        <path id="Path_11" data-name="Path 11" class="cls-3" d="M389.915,192.123s7.156,34.223,10.4,45.5a2.187,2.187,0,0,0,2.432,1.914h4.6c1.812,0,2.036-1.313,2.452-2.559,3.2-9.6,5.688-31.662,7.762-41.605a3.2,3.2,0,0,1,3.131-2.541h2.493a3.2,3.2,0,0,1,3.134,2.555s4.4,30.457,8.274,42.235a2.963,2.963,0,0,0,3.036,1.914h3.385c2.053,0,2.823-1.395,3.333-2.559a119.269,119.269,0,0,0,4.479-13.436c1.28-5.118,2.546-11.016,3.2-14.715,1.919-10.876.917-17.962.917-17.962" transform="translate(-385.375 -187.54)"/>
      </g>
    </g>
    <g id="Group_7" data-name="Group 7" class="cls-4" transform="translate(453.346 180.26)">
      <path id="Path_12" data-name="Path 12" class="cls-1" d="M506.088,186.214a3.226,3.226,0,0,1-1.071-2.46,3.27,3.27,0,0,1,1.071-2.5,3.9,3.9,0,0,1,2.761-1,3.841,3.841,0,0,1,2.723,1,3.267,3.267,0,0,1,1.07,2.5,3.224,3.224,0,0,1-1.07,2.46,3.841,3.841,0,0,1-2.723.995A3.9,3.9,0,0,1,506.088,186.214Zm5.954,3.174v20.961h-6.423V189.388Z" transform="translate(-497.363 -180.26)"/>
      <path id="Path_13" data-name="Path 13" class="cls-1" d="M528.631,210.191h9.091v5.3H521.457v-5.109l8.715-10.555h-8.64v-5.3h16v5.109Z" transform="translate(-503.284 -185.399)"/>
      <path id="Path_14" data-name="Path 14" class="cls-1" d="M498.331,258.622a9.623,9.623,0,0,1-3.869-3.756,12.16,12.16,0,0,1,.02-11.4,9.694,9.694,0,0,1,3.906-3.776,12.418,12.418,0,0,1,11.12,0,9.7,9.7,0,0,1,3.906,3.776,11.136,11.136,0,0,1,1.428,5.69,11.018,11.018,0,0,1-1.447,5.691,9.772,9.772,0,0,1-3.945,3.775,11.782,11.782,0,0,1-5.577,1.315A11.562,11.562,0,0,1,498.331,258.622Zm8.678-5.6a5.374,5.374,0,0,0,1.3-3.869,5.473,5.473,0,0,0-1.258-3.869,4.269,4.269,0,0,0-6.217-.019,5.513,5.513,0,0,0-1.239,3.888,5.581,5.581,0,0,0,1.221,3.869,3.953,3.953,0,0,0,3.062,1.353A4.189,4.189,0,0,0,507.009,253.026Z" transform="translate(-493.053 -201.194)"/>
      <path id="Path_15" data-name="Path 15" class="cls-1" d="M541.691,239.488a7.271,7.271,0,0,1,3.757-.995v6.8h-1.766a5.418,5.418,0,0,0-3.607,1.033q-1.2,1.034-1.2,3.625v9.729h-6.423v-20.96h6.423v3.493A8.495,8.495,0,0,1,541.691,239.488Z" transform="translate(-507.244 -201.236)"/>
      <path id="Path_16" data-name="Path 16" class="cls-1" d="M570.388,255.957,564,247.167v8.79h-6.424v-27.8H564v15.363L570.351,235h7.925l-8.715,10.518,8.791,10.443Z" transform="translate(-516.296 -197.514)"/>
      <g id="Group_6" data-name="Group 6" transform="translate(63.626 54.936)">
        <path id="Path_17" data-name="Path 17" class="cls-1" d="M593.047,269.347a1.884,1.884,0,0,1,1.338-3.222,1.741,1.741,0,0,1,1.29.546,1.949,1.949,0,0,1,0,2.676,1.741,1.741,0,0,1-1.29.546A1.819,1.819,0,0,1,593.047,269.347Z" transform="translate(-592.501 -266.125)"/>
      </g>
    </g>
  </g>
</svg>
